<mxfile host="app.diagrams.net" agent="Mozilla/5.0 (Windows NT 10.0; Win64; x64) AppleWebKit/537.36 (KHTML, like Gecko) Chrome/128.0.0.0 Safari/537.36" border="50" scale="3" compressed="false" locked="false" version="24.7.13">
  <diagram name="Blank" id="YmL12bMKpDGza6XwsDPr">
    <mxGraphModel dx="2407" dy="599" grid="0" gridSize="10" guides="1" tooltips="1" connect="1" arrows="1" fold="1" page="0" pageScale="1" pageWidth="827" pageHeight="1169" background="none" math="1" shadow="0">
      <root>
        <mxCell id="X5NqExCQtvZxIxQ7pmgY-0" />
        <mxCell id="1" parent="X5NqExCQtvZxIxQ7pmgY-0" />
        <mxCell id="z4UkGlOtmnH7_BrZowRd-14" value="" style="rounded=0;whiteSpace=wrap;html=1;fillColor=none;" vertex="1" parent="1">
          <mxGeometry x="-796" y="342" width="765" height="432" as="geometry" />
        </mxCell>
        <mxCell id="z4UkGlOtmnH7_BrZowRd-48" value="" style="edgeStyle=orthogonalEdgeStyle;rounded=0;orthogonalLoop=1;jettySize=auto;html=1;" edge="1" parent="1" source="z4UkGlOtmnH7_BrZowRd-15" target="z4UkGlOtmnH7_BrZowRd-45">
          <mxGeometry relative="1" as="geometry" />
        </mxCell>
        <mxCell id="z4UkGlOtmnH7_BrZowRd-15" value="" style="rounded=1;whiteSpace=wrap;html=1;" vertex="1" parent="1">
          <mxGeometry x="-705" y="608" width="134" height="112" as="geometry" />
        </mxCell>
        <object label="%subnet%.3" placeholders="1" id="Gr0Zq-AI6Quabplr0KPa-103">
          <mxCell style="image;html=1;image=img/lib/clip_art/computers/Laptop_128x128.png;fontFamily=Helvetica;fontSize=12;fontColor=#0A3DA3;align=center;strokeWidth=2;fillColor=#EDF5FF;fontStyle=1;verticalAlign=bottom;strokeColor=none;labelBackgroundColor=#EDF5FF;labelBorderColor=none;labelPosition=center;verticalLabelPosition=top;" parent="1" vertex="1">
            <mxGeometry x="-955" y="461" width="80" height="80" as="geometry" />
          </mxCell>
        </object>
        <mxCell id="z4UkGlOtmnH7_BrZowRd-6" value="" style="shape=image;verticalLabelPosition=bottom;labelBackgroundColor=default;verticalAlign=top;aspect=fixed;imageAspect=0;image=data:image/png,iVBORw0KGgoAAAANSUhEUgAAAGAAAABVCAIAAAA5TXZxAAAVCUlEQVR4Ae2bCVRT19aAgbpsXe+98rrqa/v3udQIAZKQ8QYSCCAyzwQIAjKjglOYlIooRQUEFWdrRREoiLMiMwjSKgQRUYZAgowiDiBTkCESSfILx96mgGLfM+G5Fndlsfbd59x9zv7uPvuce+5FTjx3vJeA3HtL5wrFc4BmCII5QHOAZiAwQ/HsR1ADt+FcWtrmwEAHWzu6tY2jnX3I5s1pqamP2tpm6LtMimcTUE5WFsPOjoDFLVu8dLO/7/mEg9nnT148cygmIsRAVxuHxvhvYvJ4PJlweGcjswOove2RlbnFlqCg/bGxtpamjffyhtor+E/uDz+6M9h8+2Xjr30NN2tvXXZ1pFMg8rOnT9/ZfekXyBqQUCiM+PFHupUVq+Q2w84+LenocEfl8KNyHiePx8nrr88FwrjMyeNx89NO7MaiMN0vXkgfxfQtyBSQUCjcGvJDdOTuK5cueXl45lxOGOmoHHhYKMkFBgQLu7dtXK6jMzg4OL0HUtbKFNCdsjJnR8cD+/Y50O0iwzePPBmnw+PkDTQUdDzIefogA4YCC92cm5eSj+IxmP1790kZxfTmZQeoqbHRzsbWxMAwateuQ3FxR/aGDzbfGgfRUHgx8ZC1meE6T8cedjaMBghXkg/u2uJnbaKPV8cOzUYQyQjQq1evmBs2ebi6/pKYtCNsO3MjMzTIdzzLcPIqbl70dLKquZnSUnZp6ljrn0hMT+9fd7Ez53A4099laWplBOhFV5e5iUn8iZ8DmAHMjcwN6zYkHNwBAB2K3PK86u3g6ufkTmXE4+T1sXNqis8eiDsgTRTT25YRoOqqqhW6enuiopkbmcyNTBcn5+qiFDCIumvfDqsBbn5d6eUm1kWgf3j7XB+Y1LgF15Ljnldnuru4TO+ENLWyAPTs2TOGnQMBi9v5Y0SgfyBzI9OBTm8sOT8p3Qy1lrTXFiceiRhoyO+vz43bHfywdLzOcFtp9vmfyjLjLUxMxsbGpEljGttSB9Tb27vS3iFYHUNCqpgZm1AgspWF1UoHRmPJhUmAHhQkl+cmb17vXnz52AA3r638iq+7fT8n73DkZh8X+q4QPzwGtc7XTyAQTOOH1FTSBTQ6OrrGyycIgz4PETWJhMSfYguvJ9EtTR3tGXeyT0sCGuDmZ6fE+TjbBqxxabh1jsfJe8nN3xXiF79/273chPy0g48rrupi0EZI5L7YWJFIJDUgkw1LF1BiQoIFEvmERt2qjjkeF3E4Zpu1iUHqyT0ELDblaIQkoPFMXJfz/MH1rupMWN/NznZ3tMxNO9hfn9v5IMNcHX1Lg0hGY0pu3Z7sh9TOpQior6+PoIZ6QNV8TKMwcZjC9MSrSftvXTuRfHhHVeEvndXTLAthNDxuAZBbyi5ZGOpV5CQ8r87wRKuxqdAJvLq1DX3w5UupMfmTYWkBEolEgQGB61CoFzQqm0qKUUcfj4uo+fVsY8mFFzV/xMgfRCbWROC0pzbrZWvpQMMEI26en4dDRW5Cc/nlPShVNhWqopCs1VBpqal/8kNqJ9ICNDIyQlBR7dejNVDJbCqUAeHNdLQ6KsejprcuZ9rFDgyrvvjs5TMxg81F+ecPWRsvTz22czxV79nC0iCwqRCbCp0lYW1s6UNDQ1LD8odhaQH66dhxGySyS0erdsKlWioUgFI11adlJu+ztzCsvfV2sQNDGRe4BS9qsppLL3RWZ8WGM8MCV2emHuDeOnfh58jjMVvohnqVlHE6bCpUSSEZY7F3y8v/8ENqkrQA2VhYsihk7kT4AK+qKNAedbTWkqVhmzeMdNwDaCRDaaCl9H5BYkzYRuPlWsZ62ibLtU/FhdE0SGtc7RpKLxgpI+sn6ABrWzCow4ePyGA6kwqgV69eoZYpP9Kmsikk4A/4W0eFfsarOzlYDz2+x+Pk8zh5Ny4e6av7fQ+ooTD12M6bl49XFadmpcQlHo24l59YlnmquzY71N8rmYiFTdVRoWQC1sVxJZ/Pl1rovDUsFUCVlZWYpYjn4+n57aCAhbuaJNT/fd9R9+tAww0eJ6/mZkrS4XB4oD27f33rJi93huUmH8fAdaviIvz763PvZJ8yQ6lWU//EuphMMNNb3tPT80kCOpuS6qKq8lBrPD1P+tVRoa1otVNHoodaWWALMX7/tuyUAzzueEDxOHnPq66XZMQXnD/8a/qJlrKLj++nm6/QcVFRAbkMtvaAQjIiEBsaGj5JQCeO/xSCQddLJCDgWB0VKiQT7JSV8Bj0E3YxCKL++twDEQG/HP2xty5n4HdMA+P7RPkVuYnOdhYEHWOUmnoQWq1aAvd9CslCDXXv3r1PFNDxnVj1Ogl/2FSoQpMUjlGDVFQhI1s8zdDBxpyVn9Z+7+pQ4w3O7XObfJxc6GZXTu+p/e1s7W9ns1Pj1nutxKNQixDLKDZuBmu2IVXQ7qoqVb9PZPcpJCskklXK+lQBhapj4EFRS4V+IWKNlJFEXVPDtdvNgvaZMKPUcGQHW9uoXTsid4TokQgBGLS+krLSUsQKbU1PR0v/1U76OlS6isoFiGikokpzDzRcu10NB61SRXInRm4lhWSppnb37t1PElByYpK76viql02FbmoQ16up4tFYHSc/s4BYE2a0rleIJsOXZO1B0rfw9w88c/q0Pxr9WJtSQyWnEPEMHNbdxtTXwTIch23TpnK1yPtxGJyRPdV543KvLYSlS9u0x1PbAwrJGI/n1Et9j1Eqs1gZi4VbiqinQrVUyExZWR2iGa4JM9qwm+YepOGwFqJ7v/3ZehEtVhF0TaKw6jUTNDlUciqJsAGNSiPht6tjHmppTKybcThDW4juTbJytVdWBquh25oEEx2drq6uTzKChoeHVRFKFZqkWipkh0RSrFxN/PdoMCTQwIzo3iQbj7UoVNXvK6ZKCuSMRq9eoe9DIiURsNdJ+EgsmmixCqJ7qy+3PIMfXw3VUaGzRJyjre2nug4Si8WmhoY3yHg2FTqKU0fhyGZBezUZvn/EjgQgiO6tq05omIigck2itwpya3BwbXVVUX6+ga7e2h37jKwd8Eb2EN0bg8I1ab1dN4Sro2NiYt68hvwkI0gsFkfv3u2sgmRTIZYmcRlimcHqUG3XgHcBwhnS0wi4nepoKz3D4J/Om1jS77BYZWVlXqtcd2ew/I+lEoztSDae+srjBsEDvRka81vxr9KmIxZL7QOq7u5urJIyVwuqoUKrVFWo1q7LfUIhuhfMiGTrhaMZvz218VSFtCEtvZ3Xbu+8Xrou9ufo3bszMzL81m3cmV5CNaVDdG+skd0JHBoAukrCmRubvhwY+IQBCYVCV2eXH9AoNhVKJqqraeoZrPsRsvP5A5CNB2Rkq+2yCWhwBnRzJ88d5wt3XS/dlV5ibssoLytjbtvls/MgydIVsvVCY/APJvJUDRVyQqklxJ+SAR0pRpBYLG5ra8MjkSxN4m8aRE11ouG6CJjOuGDno2nuBAMiWrmpYska2svdt0aFpmR7hMWkJP+yOjSSbDwePkQrV2Nl5buaxDN49R3qKCKe0MDlfvKARCJRbEyMPRL5gEIyUVExWBsGz/Eka3eI7kWxdJ4A9HbckWw8cAa2qliICFEsXbxpWtp4EoVg6kgwc1YjaTGQSAM0ymyFYVzcgdCQH7YEBY+OjsqAkVTWQXC/h4eGHOl2oRg1LxRKx3kDxWk9CCKC6UpVLISj6hON6DiaEZqsQ6Tq6RiYrjCxXGFkRqVQ1ZSRyxYvQSqrKC9DUjQoWBTaw839enp6UWHhwMDAAI/nstKJU18PNyQ9QbqAxgdaa6u1sYmekpIW3VNrFROie5Md1kLGdsTlFlQqbU9U9MXzF0pul9yvrORyuc3Nzc1NTVwOp7yszNDAaIV3CIZIOX7sWEz0nsIbN7Kzs69dvfrs2bOxsbH9e/edOnnyU90wm3Q/62rZJoZGFHMneKanrFxPcw+yd/EUCATTOtnX0+Pl6aO/OgynaxoRHt7S3HL86JGenp4L586Xl5ePvX6dlZHht2atDEaZ1CMIwLpy6RLZyFbb7U9LIYq+2evXryfRBKc93d0b/PwgujdO33qVkzOfz98cGDjA42VlZhbeKOzr7S0rKfFyd3/16tW0l39EpYwA5WZnk5abgyEGz2VISO9dbyZ6ul8EbtxAonvhTR3NjIzb29rcnF1am5vZ1VUcdm3Ho7YLaWl7Y2Jk8KpeRoBuFhbhIC2ytTtk+/uTKt0bq29VU1Mz7d3u6X4RtjmYaONJtFxFUMdG7dxlY2npaGe/0t5+7549Z06dclm58n5l5bTXflyljAB1PO5Y5eSMQaujyTSiuTMIIryJ4+WLl6b1p7ene190lBpJWw1HppDJXA6Hx+M9amtLTkyKm0jPZSyWDB7EpLtQlPRcJBINDg7eLCpyc1mFVsOg8Bo4fSu8kX3EjnDJarDM6+8/+dPx2OjoFXp6ZSwWnMhFItHY2Jhs0IDOyCiCYM/5fP69irtbgoNtLK1WLF+up02DiySFlwO85ISEooKCH8O2l5aUSBbJWJY1IOCeSCQaHR3l8/lYNHrab+mHBgcvpqXlZWcV5Oa8K8pkQ2p2AMG+bVq/vuJuBXwKC6/4/Kz09GuXLxUXFfqtWQvrZS/MMqDr6elhoaFT3RYKx1i3b+nr6lqZW5xNSZlaQWaaWQbEHxmhQBqtLS08Hu/1xDE2NiYQCHq7u+vZbBwK/fjxYzhDywyKZEOzDGj8MyKmv642zcfTa2tISER4eNSu3Tu2hW1av55ube2xylWWE5YkF1ieZUBisZjH45WVsrKzsk79fPLQgYNHDh2K//nk1StXbhYV9fX0wh2dLWH2AcGeCyUOWDnrwv8KoL6+vhcvXjx58qStre3x48fvecji8/ktLS29vTIKrg8C9CZT8KY73vUs/ldv+9jYmJOTExaL/de//vW3v/0NhUK9642gQCBwcHD44osv8Hi8DD7t+NBHjcHBQXt7exKJhPn9IBAIDAajsbHxr7J4V/3h4eHExES5iUNJSamzs3Pami0tLaCOnJzcsWPHpq3zcZUfGkFdXV1JSUmfffYZ6F9YWFhXV9fHiiDgEofDmRHQ0NAQFoudN2/et99+W1xc/HFZTGvtgwCBK589e/b555/LycnJy8tnZ2dPa+6/UX4IILFY/PTp08TExIqKCtmsAD4aIIFA0N7eXl9f39LSMjw8DK/uBALBq4ljZGQE/FulQCDo6OhobGzs6+uDq4nF4qmARkdHwbXgL3iCA/LQ0BDYThQKhaDam13HwcHB169fg52DxsbG9vb2qf/YMTo62tHR8fDhw/b2dj6f39nZOTw8/J77+hEACYXCwsJCDQ0NFArl6Oj47bffIhCIlJQUoVA4Njbm7OyMRCIRCMSSJUvodHpTU5O+vv7ChQsVFRX//e9/X7t2De7cVEC2trbgWiQSqaOjw2azSSQSAoFYunTp4sWLz5w5IxaL09PT8Xg8rMzLy0tMTFyyZImiouLXX39tZ2fX19cHN3Hnzh0tLa1FixaZmprq6OggkUgSiVRYWAhXmCr8t4BEIlF8fPz8+fPl5eWbmprEYnFwcDAYhqdPnxaLxQKBwMPDAyQXBAKBw+FCQkJWrlypoKAgJyenoKDw/Plz0K2pgMbGxkgkkoqKyoULF8CA4nK5CxcuBNZAkhaJRCwWC4x9BQUFPT09BoMRFhb25ZdfgmpbtmwBcfro0aN58+bJy8sfPHhQLBaLRKKEhAQFBYXr169P5QJr/ltAdXV1oMdEIhF8jJKdnS0vLy8nJ7dw4UKwnCkvL4cBARyjo6NKSkqAY1FR0bSA3jyZbd++ffXq1SMjI3B3xWLxpk2bJAGBIjQaDaxFRUUBHBcvXgTVsFgsGEQRERGgjr+//8DAAOgbk8nMyMiQtD9JngGQaOIA10xN0iKRKC4uDvSDRqNlZmamp6dHRUV99tlnCgoK8+fPB77duXMH1NHR0YFf1OBwONDd9PR0YF8ygh49ehQcHDx//vzm5uZJPd6wYcO7ACkoKOTk5ID6VVVVoJqSkhLIffv27QMaeXl5CIIiIyOLi4s7Ozu7u7snNSF5+j5Ao6Ojt27dysjIAHtaUwEJBAIfHx/QKgaD2T7lADkSBkSj0eAXNe8B9P333zMYDDAGjYyMJkXQ+wHB02t1dfUkQE+fPkUgECC6QdGCBQvMzc3hMS7JBZbfBygxMVFRUfGLL75wcXEZGxuTBFRQUCAWi1+/fr1u3TrQmL6+/tQpAzTzVwEpKipu3rx5wYIFIEnFxcVJTnb/MaCBgYHa2lo3NzcEAvH555/DpBgMBoxjqvBOQAKBgMFgAOe/++670dHRxsbG+fPng07Dn7jHx8eDlv7xj39Mej568uQJGOd/FZCSktLz58/9/PyAZUVFRcm3Q/8xIAcHh87OTrAcyczMtLCwAPYXL14MD/y/AEgkEq1evVpOTm7evHngHqampgKLGAwGNtTS0oJAIADHsLAwkKdFIlF7ezsaPb7d9eZzvP8AUFdX18jICGyZQqHAPsCAjh49CncDJGkFBYWsrCyglBxi4PUkhUIBQwFU6Onp+frrr+Xk5EgkEmxnqvDOCBKLxaWlpV999ZWxsXFnZ2dlZeV3330nLy+/ePHiJ0+eSBrKzc395ptv5OXlFRQU9PX1mUymr6/vkiVLwDT/ZiUWEhICCH7zzTf5+flvvq1qampatGgRSNLGxsatra1DQ0OHDh0C1f7+978nJSXx+fyCgoJ58+aBam5ubq2trWw2W01NDVTT1dWtrq4eGRkpLy//6quvgNLNza2np2dkZCQ2NhZo/vnPf547d04gEBgYGCxYsMDb27u9vZ3H47FYrAULFnz55ZdlZWWS7kyS3wdILBbfvXvXxsaGRqOBNdXevXv7+/snmRCLxc3Nzdu2bSOTyRgMBo/H+/r61tXVicVioVB4+vTpIIkjICBgcHAwPDxcQhcUHR1dUlIiqQkICOByuUKhMDIyEtZv27YtICAAPg0KCoqJiamtrZXUBAYG5uTkVFZWSir9/f2fPn36ww8/5ObmhoaG6urqmpmZaWho+Pj4sNnsqe5IamYABKq+fPmyt7f3Q559+Hz+e7ZyJBueRVkoFL58+fID+/lBgGbRmVlveg7QDLdgDtAcoBkIzFA8F0FzgGYgMEPxXATNAZqBwAzFcxE0B2gGAjMUz0XQHKAZCMxQPBdBMwD6fz5TS0jH2LeFAAAAAElFTkSuQmCC;" vertex="1" parent="1">
          <mxGeometry x="-684" y="628" width="96" height="85" as="geometry" />
        </mxCell>
        <mxCell id="z4UkGlOtmnH7_BrZowRd-9" value="" style="edgeStyle=orthogonalEdgeStyle;rounded=0;orthogonalLoop=1;jettySize=auto;html=1;entryX=0;entryY=0.607;entryDx=0;entryDy=0;entryPerimeter=0;" edge="1" parent="1" source="z4UkGlOtmnH7_BrZowRd-7" target="z4UkGlOtmnH7_BrZowRd-15">
          <mxGeometry relative="1" as="geometry" />
        </mxCell>
        <mxCell id="z4UkGlOtmnH7_BrZowRd-7" value="" style="shape=image;verticalLabelPosition=bottom;labelBackgroundColor=default;verticalAlign=top;aspect=fixed;imageAspect=0;image=data:image/png,iVBORw0KGgoAAAANSUhEUgAAAE8AAABSCAIAAACaHh6UAAAMEklEQVR4Ae2aC3AbxRmAZTsPpyY8CmnSKSR9wMCUtpDS6cB0hg4UWigEmklTKAmQkiaBhDzapkWyHedhJ34EO7EDxrHjxI6T2DHO2yQQAiR2AnngEBLHd3ra8lOWZUuyJUt3t7dbTiuL891J1sknDQPWaDR7u6vd/9t/b3f//18V+i59VN8lWDRG++1V95hux3T77RiBsZmsqB4hQh4G1pvcD29vidcQcRpCpRZ+49REvIb44UZ95RXnAMVCqKgEvMaipVsIkc0Fqq86f5SpF+OFzklMJbNP28x2GiiNrTwthMjUR6tPWCemkgGqOA2RlKadmqF/pNg8f3/Hq4e6lh2xLDtiWXq466Xqjid2tv4k2zB5rTYheZjaZ5W1NrR7GFYxaIVp+wbBhlM9E1L8QsdpiNvSdbN3t5dcsLf00bw5JZHscYH9XzoXHey6PVMfPzTh49TEC1Udxl5K4g/ysxSjhQid0rvuftOI9RmnIe7JNRadt3c4GblSOT3gyPWBBwtbxiX7Z8ct63V59b1eZrRKVoYWsHDNya+n7vQsfclFu8PDyuXk16cA/Mw8+FBhCx6+BA0xu6LNMiB77PhtKkBLAfiX3W1xvpU2XkOsOmZxegG/j9GkKQBLLzkmpPiVfG+eqd0ROfBoaT0MfKTYjIc/KU17tKl/NGzB/mvqpX65xYR7mZah1/ZE+BqPipYG8LESP+qMLIPBFqEQwSD5+U4vmFXWhlevqRv1kU3pyGkhRM/va8fjfe8WY2d/5BOMTxUiPUizC97txMA/zTHYB2WvC5HT5pyx4YPRjCx9DFDxKHgY+NzQED9T3iZ3K46Qtr7ZnZSmVamJSWtIk0KbYQit8otcFPvg280q32Ez/1wvv2jEdCS0DIAPbOP6U6mJE9qBEftQvEKPC0xey431DWlaq0vG+h8JbfEFO95vFh/o4pM4vOyUdN2kNeSUdF3Z53Z+UQRpwMIXKttvWqedmEo+Xd4maOFssxsP9wuVHYKiEI+yaa0u5sfZBpWamJhKOrzD1om6IQmwHJPWkAev9dO8Uy5EiIWIYSEFYL+XdVEsBSCACELEPyX1e8DCmk7cCP69IU3rYYb1BRHC81mlJpqs3hCE/CLZtNsv2LEEReeF2nvtcBdfRJy+P7/5msV7vdtb9aVz6eGuGdlCkyhBQzxU2JzygfVQY7+pl977hTNwlgi0NiGFPG1y8+VGCLX00djwmFXeKigK9iiPdsDL/sK3y0/bqO8bFL4wfxjaewNSKpWI1xDlDQ4xw9/2cltgnJoI8zQujzYwVzM+7uHPPSxH9GjjNIR4KiGEGi3e8T7LIeeMTTwW4hwZtBCiJYe4uZqYSpJWiWPTsiMWpZQpaGd8CvmRwSWWHkL06wJud5iSruOtD+KK/hwZtF4GTtuoU6mJh4vMlJRboZYcEEip1GNSmtYuenEwwdazvSo1kaAhHB7hmyWGlkHb1E1h6dM/kp42p/QupfAE7UzN0PUPX/8DJGY7jY90VV86A5nBEjJod192cEuChqhvHhQ3Z7bTN6/jdvwoff9Y2hrMTzU1g5txMwtMYqkEOTJo3zjRrVIT0zL0bSILE0L0VFlblDhxswnJROkliWUZIfTEzlaVmrg9Uy9gEz/KoH1sB2fc3ZNrdNPDNnqEUEO7J+BJih7zPblGu9TLiY8iN6/TivEEOTJov7+emzD35zcLmkAIrTwWrdWYP3bxGuJDvcTKnH+OW6jGJRNiwQQ5Mmhxx4/vkDi43BTNN5YPnHrSKgBACH1s8K+O4iJBjmzaeVXCU7ibYmMwjTHznD3tAgCEUH2L30JgR9pzFaDtHmBiRvvkzlZx4CRAKx4IQY4MWmzlPVJiFjQRS9pnd0voNioz+e5czjN+X75JMF9sbhAz3UrSZn5iw14UgRrEjzJ0ix1Cd202Co41FIDxmq9DPvxFRfH0wppOMcPzlR0qNReCERcJcmTQbvykR6Umblmv1Ys8qT/bzNn3Mfjm1kk4on73DhdPmJFlELCJH2XQHh869L9HCH1RK47GYr9N0BDnWoQ2PYQoKY2bWQuqJdQuAJZBaxlgsPZWHLUIWqklomX98OfLnZuNYkvo83YPXj4vd3gEUokfZdAyLLxvKxeemFnQPEANOzwCFv3AdzTnC6d4+o0T3WKA/x3nTu8TU0hPGBFAGbQIofSPudUvQUN8ahaaQbn13PEtet8p6TqdKPxDA7/JHY4BhJDMu3AGGzXeF25bdKBTsA9RAM70uRGiARyvITZL+WJO6V04nH9KyrMhngjydEsD+OddnGWXmEqaRLH2Fjs9s8AfiVOWeeUxi9hbwrDwNz4n/uS1WtfwN0vMiXPk0SKETur8w7niqEXsiOsdBPOquN1Pqe+EFLLkop0dtkr4Wc6Y3FixkmqXBJZNSzHwwUJ/GEa88SKff/xi22DAtT0a7FXHLD1u6dAhYOGdvk0+MZUUnHYkOSPULULojMmd6LsvMz1TH8zsYCGyuUHRefv31sg+Zv08z1hncg2GXGNXHeOWYpWaKJAT+JKtWzxIr/lcrV+dTrNP94QYy0ARRKjmmlPyahgWOjGVrG8WnhwCfxckCKsX/+uBgubhARNBReFjhLRumsWnRc6foJPwJwj6cdPsjSNZ/JNSyTbHCLeMEELtTubWdM6LkpQmO5gaIS32ReH5PGkNedo4glqWh3e0fLTELF75+APX7mSwuzxOQ5ReEgai+DUl05HTIoTKGxzjfLfXbt2gqxNFpfj9Tc8K12ywuYM6wVsd9G99cWqVmlh+xCLY8PndBUuPihYhlFffi43byWu1Bxv7g13InBT2WkVIxVxwyAcH3FRqYv7+Drl3EDD/aGkhRNs+7cNrxrhkMvl9q+QqjSuE8yt5uK++6rzRF4xXqYklB7sG6dDzPZhqZZ4cgzVz4Fr/+KG7jXe/abzSKTRHwuHEdQS0Ti87d287XszjNYTmfWtkWlVGtwH+xm7vXUOXHBOSiXlVHWb713H5CGidHnxB1L9d37ZBd+j6aK+ejXYmB2gRQl9dLlj9Xnfi0CualKadXdF2xuTu97Lh035mHrza5V1yqOu2Ddw2g02up8vajL0jb058YSTTStIixN2guNzheazEnDB05TZeQ+B7GmECT88yYDML159ZYHqPHABS52RJntCZCtPizmgAz7cOPr+vnS93mLSBar/fbq4lBsI0bkJDBkqjQotbZ1jY2c+UNziwXRbACJ24I9Owuc5msNFiEy8gdMSJKNIGZAIQOb2AsFI115wrjlp+5XP3BJjvyDS8XN1Z3uC40umxuQEQxwICDY06EQvaUQupWANjtIoN5TeuoTHdfjNUYum2DrhGtpxlCau8bvvsjr1VB94uKs3Je2vLtqIuC+fyXr/pTY/Hf/eSZdkdu/a8vOj1XRWVAIA9le++smTlvv0HARhm631Sd66sokoWzIiVFaalKOqZOfMJUsdyH3ip4YvGJhIhZDA2QwgBAPtrDiOEPB7Ps3NfxMJ1W3vmv7LUZhOGs5pIXfHO3SMCyKqgMO3VxuuLlv5LIIGtty8jK8/lcldWH1ywePnxD075aF+Cvk93d8+LC5fZevsuNVypPX6SYZiiHeVGU0sTqVv8+r+z87Zl5RYI1C5oP/xHhWlrT3y4cnUK7p6iKIfD6XA4IYQLFi93OBxNhDav4B2s2z/NmpubX5ibX5iemTvn7/+w9fbp9MZthaUIoYp91ZevXA3o9nDtia1vF4ePFKKmwrQXP//i5X++jvuz2x2bcvKLd1YAAMS0z859CVfrtvp1G4zW3Nq+Wr02BEP4RQrTOp39jz/1V/yuIoSKS3cff//Dr25OY1pSq9+Us3XovRXSNjeb/6NOgxAKdFt39rOM7C3hI4WoqTAtQkhvMK3LyMnJe2vrW9tT1m5qbCLPfnrh6TnzdpTt8Xqp11b898Dh2l0VVY8+OXvf/gMAgL1VNU8881zVu4coml746so9VTUZWXnbd5R3dllytnCNrFqdYumWuCYVgipYkfK0CCEAgJeivF4vw3BxDYbhHimKM8cZhmEAoCiay6G5HJrm0jSNazLA96F9RdwfvRRuJBiArPyo0MqSIJaVx2hjOdqx7WtMt7Ed71j2NqbbWI52bPv6P3267i2fA1X7AAAAAElFTkSuQmCC;" vertex="1" parent="1">
          <mxGeometry x="-987" y="625" width="79" height="82" as="geometry" />
        </mxCell>
        <mxCell id="z4UkGlOtmnH7_BrZowRd-8" value="" style="shape=image;verticalLabelPosition=bottom;labelBackgroundColor=default;verticalAlign=top;aspect=fixed;imageAspect=0;image=data:image/png,iVBORw0KGgoAAAANSUhEUgAAAFUAAABWCAIAAAAxA02jAAAXh0lEQVR4Ae2ciVcTydbA31/x5nvfN+eM+hQFHVlVAigj7jqO+4IyoqIOb9wRZRMQRAVU1iCr7AQQQUEQFBBQkUV2Zd8DBEggW2frreqbTocQERlFwHnnvT51QqXTXV2/e29V3VtVzd/gNzrwzme4FPlGDx9/7N/Gs3OVIzjleK4VEmVUdWRtTwKTRBVz9eRJnjOn/Kh4CH/thCWvwBJ1kfDlbzYtLt20pPbUz/y3pRCASWo3+6fmiJ/AFbIyb4xlgCXqKpOeouRa1a8WpRsX06naZotwaHD2eSc+Ydb5AYGCkSosjYEl6lHkLEMsaxcQ9VIKB6AnLrBir3HpxsVlm5Z07FouTw4mRfy5tIXZ5AcEEDbj2T+P6VwXSzLEe/IpPFQuf3yX6KyBBA5QRafXOZGloSodNVVkxgK5bKKmZuf7rPEresjOi3iGkQa8PvZwHS5iY93vJZ5bkYsGyCUjSbwLJAmsJGucnxLECqGNNVb6BhLE7FCPlzrz/CTGB9wk+P4nWKuNp+thKavwPCu82l/WmQ+QAQhIvL6Aglcm6Y0dEMfU/JKrR8Wnt4oOrhCsZgjMVktv3sRaWma1OcwoP1CQQ7GwaQus1aZS4yayPQbjd0ISpwUOSBQAEn9fMs7vsw8SuIr/kBHZXEuKBIry54jdBYGpmcCYIVxrgXh4Yr3K/mJcbTOWmxl+AEhUUg9a98FaHYq83gD0e0FSSlcTR6Ukt4ZoCMOyD6C8DhJDZU/vSVzXI/7WeFcdhFCey6Ls/5CRorKIJEkIIcBxeXa2aPcegTGDShabJQ+KCDk6Y9xjBX09PyBwPtbvCeqWKdWuA5t3QEU3VT4ApALhvfIXxxtjibpohJ7E0UBy4xe8tRwCEmIoBCRQyORpoaJDK0SHjJRdgBFidxJ//x7QLZ8gZMyQkZXb+rQushfZczb4KOrZkJxJT+Gr+AFQSMWpeOtmlcHX6sDBcBIXQQhJhbA/1609yKjVV6vVV4vj8yNySdXmEfuVMuZxoq9ZlhkrPvuzRs9nJFij1LbZavHZs0RXFyVDklSUtfcbX2MvsqeStgPHJgYdEMIZEsK0+UkpUi4RuIq5lkSjodLmjSAvBgIcQiAfrOqJ30OT059sz2XIhTF+uvNzWCM6vEID3lBkaSQwMVUZvDFDuHmLKIkFpNRAqGhgD267S4ugU8/9/f74wdhKjK9qX2O2PJ2/0+FXyOqlotsi3mERz1LMPUDx1xsSo7kQAop/0H8w2UATvtVXaxL+cwYfwk/kpwTBYIwc90E7hyGEBHuEs8GHvci+U8+9fktE/daIZptUTnIVjnxV+PBl/BgmkIqjxCNHRTxLOlH8TcZwkAkBAQCAvVdh3dLBhCUT+Ps8fpygf6nPQZE1Q1MEwoNGfIaJWv/KjDFb+wRngzfWw6Os4F1fP+Nau54HxU+nbZFt5zJENX3Uo6d1fBn/iCitg72Zzz2gguftx7hrSZG3Cp7tAWt08KzligTd/mAdWgQtvloD15aJ7TSM/woDq8iEmILk9CCOlrQIRvYYvF60pHyhDsdoJS2C0VUmxQs2Zn+/vX7BqQFTT5IzAiHkV3VU6QfWmIWoRfBiQ9iD3Qk4phpiv1QIX8qf2tRj0dRj0cHehHEtCK4pIbABJBXGAzELz9bFWHR4Q30q4nWHPH8UaZLbGaFFCUA+3m4BjuNdzW9XrSier1U8j0ol8xeXL9Qp07LI+n7r4/9TpezvtzfvCiAVFKSgqKNKP6jKMKjEPDTW9F4kI4S1I26u+Vt6LEiuKcH9iVDUUPBEN8HdiKUoIxxVhEeJQOJiqHJ17IxkzJP4aP+k+gEAdPjeLVmoQ4ugaN6SJ99vVMPTmZfajgMZlLNA4kSteXiVftCTVcxIRsi35CdFXgAAQIoIvi0xZDI5v52h1M9K2lb9p00UFQhar7q/Wqb/Kf4qw2BhbR+EEOngVa9kfmt+3gaSEFDdkugRwTWbjF9P6rdTkh8NyS8IY4TVNXWW1jkLtn2s/yr9oGarVAgAIEDTmYxvxt/cvbavzRQfOE4ZM5CQ/BPEkCneaIyxNOw/1YQo94T4dAYnQJC9aQW5+oczv1dJIeN/dzyZb1eu61elHyR800t1hKXdT3bExPwUFmkyp+3/QV+biaJ+GeXnIxXUsIw8JDpNsRwDLGms50vSx/NPAnHP1HEbQBVTXQCAgidovBWbtXBvyj+sE7/7LfE72+R/nMld6Fq3PhJCiMuwAoeszGOsB/vjUnbHz1H/xxekkKoIx0jp36OKJmv80Rg53fM9XAsUwkn7OfokwBRocTpyYa/01i28b/IeUXU7ABX2CYnf2WqmdAN3XIGRBFkeUpJlk5xlk5x7PmOO+AWCZKCMbcH7tVQVcQGsZ+Dpy8cnORJ1sYcWAB8f4TQFQbXctnfSW2epMX+fkYDBEG7ZqnicScrlmpdp5t86p2rCJ35nm6p7tftFG4Swp7id5s+7+Hiu+WGfF1VLYRGs1v4sfkDinS3Su5dEh1eqfD4lP+3qCLduQ5/nQ3wSH2ZS/iKXbAihlIfknc/IskmeO36xMBnUL6Uav6SO8vbZ7qBSB0+boP/1E/UPgCI/RXTM7ANvdzel/3Fvl2EiPm0vF0s0lQ8hnMj/P7+z9NyzbR9IRBICJV7deJZ5nJV1Nm2O9E9KWQSHQbathIQYAIJ4tQNLoRu/qudHY39SJJwC2If2TOASV+tx+ANGwo2rBCZK+DGHf0hvX9+SC7wuanjXPCqck+O+O0U3gfgf7O4b3okyZsatjxjtGIEAvg4s8lrje32rH4F/wRCrWf6X+b9AyqJ8Xu56CFACk2OpJhotX08RuVMeekQedw5gHw57mvy7VgpWG4+r3ZjBX7V6QOcUFdsuvvwxf7lzcuzfT8T9/WSMlkvkqmDa4Ysyu9dXTo2CaV5PTms7u2++M7f8vK0Q4pgcUU3p091+gp48zEoeaj01v/BnVXijFgF/5RrV3Man+WP/fiJq2XUaPpIREmV6r+tFB4Tw8d28b8K/HUIClYk1lK+LzS1/Rz41BGQFPPsm/FuU+pdiSer1LCV/6PT0bz4N/XcXd0IIM+7kfgv+IQtIykkCwx6uVZlAgq7shoHkyio502oq+9+9QmCq0edTMzw/8dc48BhebK3LU7T/aC2nSIYq2qPs3yx0sI4DIXxwfW7bPy5MwktXYKlGpGwUAoA/P44l6sqD9BDH8ekN6e29AP1w9YrAJS7HhOtWqdu8gOr2zfhmp/jmN/nmvnxz39HV3hx9N17XRHew/HpWlMFtdcuPNAmJML0Xsj16eIALSJDlXeizNcx7Z8gc9X+i1milwvXIgVeEmI3lWWPxulIXffV6BnLRQOK2ASg+9P8AwKorkJOn6CUNlRQY6/jmPjQ839xXsCtkNLoYRzHNwQlC+Mbv1Ti8MtoPXRt+zypJLlNgMizxYmbArtiIY6lzNP6P8eviT3ZhKQxKFp/Dr2QCKCrOeiI+ckSpfIZgjF+wPUgWVEgKPzSZMTFMyp/mmgshHO4cCTmY+G34x3v+VHPZrY3IxbF5nkn1PwZDhcsIIg0NE27aTPGvvyO4mEx0cTV+n5idwB9lFpp8JKWjrBcCWJleH7Ardk75udUxkpgxbzdJn3h5GcpHgRxR5IQg9ivpViBx+okcntiMP8ACAEilYvc7ROsQIKjVrk8dJEG+cH+utv+UPfGcmn4SJ6k4Cicz3J/R/GHWKXNk//0l0W8ctVu8deQZ24nBKir+53TgnbUAkLKeJlnY7+IThqJDhqLj5vK0CIBNf7mOJMjOwva0Qywa/r55WF18NSZDMRTLTykmcZIkyKpH74IPJtzcFBl8KGnu+F87LHntsGSw8gHAULQgRuK6DnFao3h0h5CKiZEhzSUdietReflL8FGX9ilt0+cBCaRsfqlP8f3VoWrNpx1kEQq8pqjB7YDPvn/a/PHZWNFCEiTLMefGhohvwf/2ARByx7t9O0OC3UiMfsAvsjRsXba069AxUe4z1Xrm1OgQSntHOZFvGvbHxSsntsf5LSl+5z039i2wodPd0/f+HfiXLn33g9b7hUv7LjnIOzqnmAJGpYrRp01NhxMbtkXWbo2clN/lL8UPcYU8xQOxM0LsDGUhvwGp6GP9tyzVefeDFpXmLW7SW8kLiyQVH4aGSouQd44026Q0bI9q2BY5Bf+rzLKj+mf3LbA5svx0VUHdN9N/4+Vlglu7yOFuQOJ4fyvWXU+ickwmQ7xsx5bxDXl79CuXaxfNX1Q6b1GDUgTvf1jSoXVgYONNMeuNuh1IOnit/3pUYxZatzGchq/cFZ1nnfToSFLilija/sOMg6+uuPE8qoQkSAFP+Da/TjAiJDDiWVCpl3m417rwuWv/I2+TBy/pqZr9FRNFTjAql5E4TmCU34bWvRH9aiyyNOzZpFu0QKtw3iI6Fc1bVDPfoHuhrSrOWXJ5aG+QpIPDDiqtMQujFrOUqcbsXsHheHpKj/58eDDed9Xtszoup7Wdz+i4BFpHstupkXWwc/je4RSnpQGOOv5Oy/wD9ybOkf9LrXbUFkiuWoz3fFctxPY7BT7nCZQa7dCCdLE1o26FjhqezlQutGAvuqziV+5k6FnsUKUfqIanMgZBT45T87nq9OREihvjpp2RxxmlCGgphJ5McFzq76hDpat6QaxLOQQ6zckfCOGXzf+o7BYArCpH4raRksIFA/ER5Up+iBu9k5foam3c83Ph/HH9F85bVPExv9af8+eeTS9LqgAAvMmotl/peVrb+bS283nta446/q4GwUl22WLexPlCdcv6zMy0+JVlA0whT7mOXGaIj6i2Lkqu2QAZtRZMomiTvUPRonErqFy0boL+u7UcJ+j/rUFQ1pj+n5xMKXJ7KlXikQRZllF1Qc+N5r+41MPvl7iBFmpTxNcf0+enng0Axm6RBTuJrFSz2hKHg3jTO0oEBCGqras5aPVi4ZLSRSv6TBwGfnRW23+v1pWGH32qDFQtv0o/qFI/KH0Vk/XL/czjrPzLmezSLlxB9SkKCZrqmXnux6s0vPu6u/XPmqbt7X0sr6/jp8tDFbKyfMTRUrhnhdBilXDrVmlMLCmhQmASw7gvS0V3soWHI0c3+A2t9GRrO7bqeFTr+Y+3fIOgF0bBicbM+E1RT89nNWY2yARULAhI0FXFTnV6entbpAvD19Hk5rOQYhFvhl8ZmAl+WgpyBPH1Fa7fQIX3DBPxCWobG6kcFygYOYZWdot9cntPsRr3Jr3bHtuwNaZhW+z7XfENlkk5Fx83PXovF8iBcm8bIAGfI8xnvg7cHee/IyZwd2zKlSdDHdT+jxk/Zo5fWTUglSI3bgrXracnOUSWd9Hsepw9Qk4Z56mpJHwJu6z3uWNu0M4Y/x0xATtjWJeyeusHpnAc1fdOLzPD/HQlyOFh8alTArPV/HXu/HV3+evvCg9FSkOLsbo+YgQhEJSQYqQyERIUF8r5XaON6Q2ZJx/SMU+ESUjQL9FhR1jt5b2zR05XdVb46SEAq6zkHwyk+NVp/d1OC2bt2oj6Tfcp+98SXbcussAkMIwRpA51Ihkh0esiK5NrpZ+YEZqenj9112zx088juGIk9iV/fxh/3V2OuV/zqoBqjT7/xfI7YYudneafdfjnOe/lHhEM5n3zsOdX8/pr++mO4FOVnsHzs8tPVxTvGx12zqgzvTfe5+sHler5uyw4e2ne73Syn386dFdAa2H7tD3Z6QllLvip/h8nkHeDLbYZ1UbBtBRKdP3s552m4d2NHMqSX2KzsL37T4UyR/x0PQABRgvba9dQu9fU/GlOSahs+jNlf0o49QVzyk9XhcQJflHHq5WBMSfCED4yUzu5p+b81K/fgJ+uikwkBcpXHT5Vs7k5/8345wbvT5/yX/4/FZHyArlcLpPJSOU2c4IgZNTx4SYX5WX4ZHuYJn3CWCEybCxGmPSy2T75ufovLavcZ2WTkvaY2nvJF7hcu1lbT8W5mgeKovZO12gZaZ6fNC8QCm/7hzhc9XS/7nPbn4lPdwPPpIV//snP5RcIhD5+wZt/OcBW7lj09WPSzyAIQiQSc7kj7R1dGIaJEQkAUC5XEAT1OgTtvcvlCvqMXK7QNJAEVlr6Y2on2682v9e/a6R+JQiSBDhOfYpEYkxpTRiG0zcqFFQ5dMIwnD7/lQHCF/DHJabmF5ZYHf8XhmE0/8gI//QFh9jElO17rThDww3vmnbuP4JhWHBoVAAzzNcveI/lMQBAZk7ePiubnl72ZedrHZ3KV8OUwlPzHz11trSsMiMz51/nLrtcu1FRVePg4hkcGmVje+Hd+6bBwaFf9v1a/rba+27Qo6zcppa2Tdv3t7S11zW8d3G/IVFONHy+widc+WX8AMJLju4R9+N9/IIhhK9elwUww/+Y9nRy9WpupTbk7P/1JI7jGZk5BUUvAQB7LI8plUl6+fi7XffRhIcQJrDS3K77MEPv/3bmkgJFW9s6rnv7kQAUvyz18vaDELL7+k+dsYMQlpZV/n7egTYWAMB+K5u29s76d41vq2sn8Hzp1y/jhxCKEWT7nsMnfr8AIRwa5p6+4JiX/8LL20+qfFFLk58Sh9UJ2uArq2osrU8NDn4waZfASotLTOGNjNI2TPNDCPPyX4RFxlEdjUC4ZedBCKFEKjtk/dvTZwU03qs3Fe7XfROT01DlpPOXMmte/8X8lNpLyzf8vBdC2NbeecXFs7yyun+AQ7+3OSk/XyCMjmMVvChx9/KdtP3TFVLzNza1XHRwRTGssPj1Td8AkiTjklK7enoPH7UVicRKcUi37zn8KDNHk2R6+c/lL6uoSkpJ5wuoFx4AAIkpD6lXcQTC85ddwqPiPG7cDggO7+jqZobfb2nrKCh6+TSvAEEkoREx/QOcp88K2zu6uLzR8PtxXd3UvkWagZWakfrwMY+nmtgqKnnNSk0XIxKCIHJy88Oj4iJjEgVCYWNTS/bT5yRJslLTM7Pz6ApExSaqb5weOX3X5/KrO3P6Ntpic58VPi8sBgC0d3QFMiNIktqZoD7oin78VV1d+qdPfSUIqjR1IeoMlzeCoui9iBj1jV+T+Vz+SZ8hEondrvvY2J5PS88SIzM8MzvpE/846e7le9uPKZdPso76qVumOP9V/FOU++/y03/5v05TmPLQdMKUq8EYPRx8XdlzcfdX6Z8giLz8F3sPHa+uracrCwCwd7rm5ObF51MjxV//+Cp+COEAZ/CXvb86uXkRysmMAc7gFRcPV49b1NYwgkAkEgn9ArsCpX142dirPlKpDJFI1Gbyx1AqEAgbGptRZTgokUpR5cYpqUxGu/rqK2dWpjPAH8AM3215rH+A+u9Fzm43XhS/ovmzc/Mznzy1sT0/zOU2t7TZ2F7wvhO499Bxdh+1nnM/juXrx2SGRQMA/IJCQyNi7gSEOLpeJwgiMeVhSHi0vaN7V3fv07yCqx63HK56DnOpV8Bn/JgB/gRWWiAzIiwqbpQvSEhOq3hbQ/PTnUJK2uPkBxn9AxwnN+qVqdjE5PzCEnow5wwOW588g+P47oNH5XIFlztie9Z+dJR//LdzAoHgWUFRRHR8WcXbW7cD6etnHH66+x80KjLAGUxgpXV29ew+eMzF/aZILFbzJ6dmMMPuR8UmavI/SM/MLywRixHbc5eTUh7S/Lf9mXFJD5hhUTm5+cNc3q4D1oXFr16WlrW0tqv5NZ45k9mZ0f8fcZGdgxszLApCWF5ZTet/+16r/gFOYdHLj/kDQyKiYhKHubzjtudxHHf1uFXw4mVTS6tQJEYkkt/OXmpubadHlr80P4ZhkTEJPneDBoeG31bXDnN5iEQSwAy/5uXb1d37ID3z1p3AwuJXEdEJVTV11274dvewQ8Kjkx9kDHAGXa7dTH342NXTmzcy4hccdv6S88UrrqcvOLDZ/VU1dR43byckpw0Nc2MTU7y8/QaHPggcZ9AAvlb/M1KVIyfO0LGAf3BYTy/1CpymQzEjj/hUIX8J/txnhazUjJy8/OKS15+q6Cyd/0vwU86CMnacJcgpiv2r8E9RxVn96T+d//8BZoqNyOlX5/oAAAAASUVORK5CYII=;" vertex="1" parent="1">
          <mxGeometry x="-542.5" y="423" width="85" height="86" as="geometry" />
        </mxCell>
        <mxCell id="z4UkGlOtmnH7_BrZowRd-11" value="" style="shape=image;verticalLabelPosition=bottom;labelBackgroundColor=default;verticalAlign=top;aspect=fixed;imageAspect=0;image=data:image/png,iVBORw0KGgoAAAANSUhEUgAAADoAAAA0CAIAAABU07wPAAAJq0lEQVRoBe2YeVBTSR7HA+q4O/PPlrtVq+5OrQt4IYK4+8fAMuOOuu6MYzBiuOQmgNw3yCF3kCshkXAIggqioBEVRAiCnIIcyo3ccp/hJpBA8l7vQO++xQQ5taamitSvXnX/fr/u/uTb3e/1ezjwq/rhflW0YAv3c87Xlrpb6mIKbC0GAFAAuvv6Wzs6MUMQBFNoM4XPoq5AINB18ZYOT4P2N1OXmZmZzVBibT8Xro5HwL7CcWhybvQtXEzx9RQq6+pLK6v/Z1WwUPKm8ryt21+z+6HJXaGsrO4Uh8MXCNYy7GYXwzlT26+is6DJmDjvf1i1n1m9/2GVjAsV8x80d18Bd5bL1fIIdKXfmJubX5V407hm9rhHddAOWXnuKxhbWK8FY4d9b2J+CTv/FXBzissORecfSnjjHhqBoOjKxL8wLoqioYlMibQeKRZbmpaa/7rsE+PO8/nRiUmeFDq0E5r6u8lx0OT0LKXpKdLXU47QU+QsPTC/jKGdexAVazIxNYUxIQjiHXVbisWWYrElnw94UK6Pjk/UvGvq7R9Al1N63epyeXOavtQvEkqgHbDzl8zogCZn6fFFQvGCP75Y4goV8x91o2H5EvbXBtlsDBcAEJ6UIslsgcRHSY57veO+jC3+PeXxN4Y2boEUwYdbcCO4GmQati6lnEOw++tRW18cs3YhxKzddzUc8x/xisTy/+JMEcKta2qWDmZKsdh70vtxD1sw20V9Gn3/oZDG68BFF39cHm+TuAPDbBRFERRFEGSWy62oqf+XnfefH7WJP2gWS24SS27clli7l3zXMYA6z+cvnQcA1vw2McQeiWSmRjHTIpKfnLZx/2PwfWgylh6HIzOgyZu67l707w6+J23jh/mP2ZGx/MOWnpQ7SdGPnvlG3bJh3JZ1CDkUlvH184HtzNYDjiGKFm4/WLu6B4UWlVUI6Qq5V1EXO5pk5hXgHrbseNQOF9knvO5NH9jGbP0yutAv4iZkgtMopOuacMurau4/TZuZnc0pKhZLbtrGbJVK7z8c++pgUr0o8YFHLfLOoYfiKz4IZQ4dji2U9b974HG7FGv4gxCLve9eze8YWeJJDbJOwT39AwCAyampm/eSG1vb1ofbPzj0/GUeyd6FYGBq6uJh4ea1zzZA0oosZ+R0XMNIXsdCxj5wf0CSBIMlSUs74HtH1tJbXtfquJrBcQ0jWXPPgz63JampB73jZC28jmsYHVczkNezOWrte5CcIElLk2Cw9gcmHbENlLtkKq9meFTXSsPSISYx2fVaiLGTG8HA9LKze05RsdCmXGntzvP5XB4Ps/HJyT/ZBosHpW9nvNxxo2CTtj0yTzz4uXhgunhg+vaA1J+c/EbGxrGxsAJ/w1sNQZBjGia4EBaOlr3tZomofRFbsjN2Gb9ophgjb6GfRRMLyTzgSKl917Ts1Is6V9lqSxskpKTuCHiKC2GJh+eLQtgkpjkzYn4b91o0hHnEIwtx1BcYKy6EtedKhG8IvaS0Yo22DlzOzOw3Vl4Lg1GyxCMKMIidEblf0dJ/fFJBSi/fsazAMcXikQVioR+A4kJYXzuHJTCf9A8MDazZ1oELACirrv27kcOZoNgzQXGnwpJJtFjb6ERG6TvdjEqMfmlBPKpQ7HoujpK1VNGF+QnJOGbsnF9SunT21lJeHy6Korklpdb0aFbT+5zmjrzWzuLOvrLeofyuwT3xr8VvvFqwiHwxRq4YLUeUchE66w9XoszI1OGR0bXwCeWsDxcAgKLo27oGLc/AB1WNea2dmN2ubP6NyHQLibrLNea0mVNpZbXQwUWIaYXqunFhX1wejxYXT3C7llLT/LJlQea81s6Mxve7wrKFEMWCM3YGPJHRt9eyc+no7sEekyswrRDaIC7W46vyt3q2TucsnC5Qb+vHP3N+nKuRwNrrHCbjEHTayOaikUVQRDR8XGFNNlPYLK7Q2AiCNDW3VVbXCvk/VXUduCiKvqmuXfWVVd/EWhSupqFR9DQomraqZx240xzOtxc0yqtqVui0ubVtbHxCKGGWy1UiqL9+WyXk30B1dVy+QMBZ/GQ0OTWtRFAvLCvHhpmf53NmZ5ceTElmtjDKm5vj8niwzJmZUcATC0srAAACBFmajyDI5NT0x/afQOTL2kq47NHRwPAb5w0un9UmqZDMsvILMdz+oSEfahhez/isDunnM1R1QyMk8w+iDbFHfahh53SNlPVNyPTwgeFhDHdiasrc1TM9Jw8mR99NumRh96OWoYaZTXJqOgbNm5t7yso2d/XUtXbkzc3BZHj9KO7I2NgFktlPOiTGrbt3HqToWDsoKqtC3K7ePoKBKcHANPLO3XjmY6KxxSk17ar6BgBAfBJTiaCuQjK/lcx8kPbcm3K9p28A4qaysjXNbU+p67R1dgEALN29/6GsSou5lZVX6BPKUCKoB0VEoyjKFwg8KXQFPNH6qm924aulU7HSAZJMjzitrtvR3QP/FoIg9t7+C7il5T6hYXh9k8Hh/77QcmZmjBxcdawdxicnFfHEU2o6QrsK4ioR1M9o6sF5yC8pVcATc4tfw857BwaV9U1OErUQBCkqq1DAE5+yXgiBrqQuiqI6Vg5eFDpMgtf3Xd1KBPWs/EJtS/vrsXeWhrLyCxXwxPbOLkVl1SesF0tDAACI+29N/aa2dhiydPdWwBPhM7K64d3CYjMyr29uAQCQ6eF4PePxyUmhTmB1+cWAoqih/RVbL7+lf/FdS+s/L15qaX9v5OjqExq29PPQ48wspfNq3b19isqqvjSG0EgQ96SqdunbahhyJgcp4IkoiqZksL5X1bJw82KPjMGQRzBN29JeqAesujwuACAmMemUmk7J20qYOs/na5jbqJDMUBSl3Ig9o6n3prYehobYIxeNza2u+oyMjv6gqf/tBY32xdWJjQFxz2jqn1TVflFQhALQ2tGhqKzqEUxTIqgHR8Zg9xAAwAZxObOzJAeXEyqa1h4+Lv7BeD3j74mX4GxOTXMuO7ufJGpZe/g6+QWe1TZU1jfp7usfH5+oa2hUWFy+dl5kBx//8waX6xqbIW5mbr7rtZDvVDSLyt4AADJz8xXwRCWCuo2nn5GjqxM5CE7XBnEBAFwer6isQtPM5rS6bnp27sTk/79tcXm8nKJiorEFwdA0Pfvl1DQHADA+PtHd08uZmY29/0ABTzyhosm4lTDP5/+8392DqJNT0/N8vh89vKhs4QYMAGjr7KJGx353QSMq4V7/4DB05pWUPsvOhWXR60cXg2jqqh6Iu2raZhK2cDej3mptt9RdTaHNxLfU3Yx6q7X9D8o8fXu0lCpwAAAAAElFTkSuQmCC;" vertex="1" parent="1">
          <mxGeometry x="-689" y="576" width="58" height="52" as="geometry" />
        </mxCell>
        <mxCell id="z4UkGlOtmnH7_BrZowRd-16" value="push / webhook" style="shape=process;whiteSpace=wrap;html=1;backgroundOutline=1;" vertex="1" parent="1">
          <mxGeometry x="-846" y="628" width="120" height="33" as="geometry" />
        </mxCell>
        <mxCell id="z4UkGlOtmnH7_BrZowRd-18" value="port : 9091" style="text;html=1;align=center;verticalAlign=middle;whiteSpace=wrap;rounded=0;" vertex="1" parent="1">
          <mxGeometry x="-631" y="578" width="60" height="30" as="geometry" />
        </mxCell>
        <mxCell id="z4UkGlOtmnH7_BrZowRd-21" value="" style="rounded=1;whiteSpace=wrap;html=1;fillColor=none;" vertex="1" parent="1">
          <mxGeometry x="-563.5" y="407" width="134" height="112" as="geometry" />
        </mxCell>
        <mxCell id="z4UkGlOtmnH7_BrZowRd-10" value="" style="shape=image;verticalLabelPosition=bottom;labelBackgroundColor=default;verticalAlign=top;aspect=fixed;imageAspect=0;image=data:image/png,iVBORw0KGgoAAAANSUhEUgAAADoAAAA0CAIAAABU07wPAAAJq0lEQVRoBe2YeVBTSR7HA+q4O/PPlrtVq+5OrQt4IYK4+8fAMuOOuu6MYzBiuOQmgNw3yCF3kCshkXAIggqioBEVRAiCnIIcyo3ccp/hJpBA8l7vQO++xQQ5taamitSvXnX/fr/u/uTb3e/1ezjwq/rhflW0YAv3c87Xlrpb6mIKbC0GAFAAuvv6Wzs6MUMQBFNoM4XPoq5AINB18ZYOT4P2N1OXmZmZzVBibT8Xro5HwL7CcWhybvQtXEzx9RQq6+pLK6v/Z1WwUPKm8ryt21+z+6HJXaGsrO4Uh8MXCNYy7GYXwzlT26+is6DJmDjvf1i1n1m9/2GVjAsV8x80d18Bd5bL1fIIdKXfmJubX5V407hm9rhHddAOWXnuKxhbWK8FY4d9b2J+CTv/FXBzissORecfSnjjHhqBoOjKxL8wLoqioYlMibQeKRZbmpaa/7rsE+PO8/nRiUmeFDq0E5r6u8lx0OT0LKXpKdLXU47QU+QsPTC/jKGdexAVazIxNYUxIQjiHXVbisWWYrElnw94UK6Pjk/UvGvq7R9Al1N63epyeXOavtQvEkqgHbDzl8zogCZn6fFFQvGCP75Y4goV8x91o2H5EvbXBtlsDBcAEJ6UIslsgcRHSY57veO+jC3+PeXxN4Y2boEUwYdbcCO4GmQati6lnEOw++tRW18cs3YhxKzddzUc8x/xisTy/+JMEcKta2qWDmZKsdh70vtxD1sw20V9Gn3/oZDG68BFF39cHm+TuAPDbBRFERRFEGSWy62oqf+XnfefH7WJP2gWS24SS27clli7l3zXMYA6z+cvnQcA1vw2McQeiWSmRjHTIpKfnLZx/2PwfWgylh6HIzOgyZu67l707w6+J23jh/mP2ZGx/MOWnpQ7SdGPnvlG3bJh3JZ1CDkUlvH184HtzNYDjiGKFm4/WLu6B4UWlVUI6Qq5V1EXO5pk5hXgHrbseNQOF9knvO5NH9jGbP0yutAv4iZkgtMopOuacMurau4/TZuZnc0pKhZLbtrGbJVK7z8c++pgUr0o8YFHLfLOoYfiKz4IZQ4dji2U9b974HG7FGv4gxCLve9eze8YWeJJDbJOwT39AwCAyampm/eSG1vb1ofbPzj0/GUeyd6FYGBq6uJh4ea1zzZA0oosZ+R0XMNIXsdCxj5wf0CSBIMlSUs74HtH1tJbXtfquJrBcQ0jWXPPgz63JampB73jZC28jmsYHVczkNezOWrte5CcIElLk2Cw9gcmHbENlLtkKq9meFTXSsPSISYx2fVaiLGTG8HA9LKze05RsdCmXGntzvP5XB4Ps/HJyT/ZBosHpW9nvNxxo2CTtj0yTzz4uXhgunhg+vaA1J+c/EbGxrGxsAJ/w1sNQZBjGia4EBaOlr3tZomofRFbsjN2Gb9ophgjb6GfRRMLyTzgSKl917Ts1Is6V9lqSxskpKTuCHiKC2GJh+eLQtgkpjkzYn4b91o0hHnEIwtx1BcYKy6EtedKhG8IvaS0Yo22DlzOzOw3Vl4Lg1GyxCMKMIidEblf0dJ/fFJBSi/fsazAMcXikQVioR+A4kJYXzuHJTCf9A8MDazZ1oELACirrv27kcOZoNgzQXGnwpJJtFjb6ERG6TvdjEqMfmlBPKpQ7HoujpK1VNGF+QnJOGbsnF9SunT21lJeHy6Korklpdb0aFbT+5zmjrzWzuLOvrLeofyuwT3xr8VvvFqwiHwxRq4YLUeUchE66w9XoszI1OGR0bXwCeWsDxcAgKLo27oGLc/AB1WNea2dmN2ubP6NyHQLibrLNea0mVNpZbXQwUWIaYXqunFhX1wejxYXT3C7llLT/LJlQea81s6Mxve7wrKFEMWCM3YGPJHRt9eyc+no7sEekyswrRDaIC7W46vyt3q2TucsnC5Qb+vHP3N+nKuRwNrrHCbjEHTayOaikUVQRDR8XGFNNlPYLK7Q2AiCNDW3VVbXCvk/VXUduCiKvqmuXfWVVd/EWhSupqFR9DQomraqZx240xzOtxc0yqtqVui0ubVtbHxCKGGWy1UiqL9+WyXk30B1dVy+QMBZ/GQ0OTWtRFAvLCvHhpmf53NmZ5ceTElmtjDKm5vj8niwzJmZUcATC0srAAACBFmajyDI5NT0x/afQOTL2kq47NHRwPAb5w0un9UmqZDMsvILMdz+oSEfahhez/isDunnM1R1QyMk8w+iDbFHfahh53SNlPVNyPTwgeFhDHdiasrc1TM9Jw8mR99NumRh96OWoYaZTXJqOgbNm5t7yso2d/XUtXbkzc3BZHj9KO7I2NgFktlPOiTGrbt3HqToWDsoKqtC3K7ePoKBKcHANPLO3XjmY6KxxSk17ar6BgBAfBJTiaCuQjK/lcx8kPbcm3K9p28A4qaysjXNbU+p67R1dgEALN29/6GsSou5lZVX6BPKUCKoB0VEoyjKFwg8KXQFPNH6qm924aulU7HSAZJMjzitrtvR3QP/FoIg9t7+C7il5T6hYXh9k8Hh/77QcmZmjBxcdawdxicnFfHEU2o6QrsK4ioR1M9o6sF5yC8pVcATc4tfw857BwaV9U1OErUQBCkqq1DAE5+yXgiBrqQuiqI6Vg5eFDpMgtf3Xd1KBPWs/EJtS/vrsXeWhrLyCxXwxPbOLkVl1SesF0tDAACI+29N/aa2dhiydPdWwBPhM7K64d3CYjMyr29uAQCQ6eF4PePxyUmhTmB1+cWAoqih/RVbL7+lf/FdS+s/L15qaX9v5OjqExq29PPQ48wspfNq3b19isqqvjSG0EgQ96SqdunbahhyJgcp4IkoiqZksL5X1bJw82KPjMGQRzBN29JeqAesujwuACAmMemUmk7J20qYOs/na5jbqJDMUBSl3Ig9o6n3prYehobYIxeNza2u+oyMjv6gqf/tBY32xdWJjQFxz2jqn1TVflFQhALQ2tGhqKzqEUxTIqgHR8Zg9xAAwAZxObOzJAeXEyqa1h4+Lv7BeD3j74mX4GxOTXMuO7ufJGpZe/g6+QWe1TZU1jfp7usfH5+oa2hUWFy+dl5kBx//8waX6xqbIW5mbr7rtZDvVDSLyt4AADJz8xXwRCWCuo2nn5GjqxM5CE7XBnEBAFwer6isQtPM5rS6bnp27sTk/79tcXm8nKJiorEFwdA0Pfvl1DQHADA+PtHd08uZmY29/0ABTzyhosm4lTDP5/+8392DqJNT0/N8vh89vKhs4QYMAGjr7KJGx353QSMq4V7/4DB05pWUPsvOhWXR60cXg2jqqh6Iu2raZhK2cDej3mptt9RdTaHNxLfU3Yx6q7X9D8o8fXu0lCpwAAAAAElFTkSuQmCC;" vertex="1" parent="1">
          <mxGeometry x="-571" y="384" width="58" height="52" as="geometry" />
        </mxCell>
        <mxCell id="z4UkGlOtmnH7_BrZowRd-22" style="edgeStyle=orthogonalEdgeStyle;rounded=0;orthogonalLoop=1;jettySize=auto;html=1;entryX=-0.026;entryY=0.607;entryDx=0;entryDy=0;entryPerimeter=0;" edge="1" parent="1" source="Gr0Zq-AI6Quabplr0KPa-103" target="z4UkGlOtmnH7_BrZowRd-21">
          <mxGeometry relative="1" as="geometry" />
        </mxCell>
        <mxCell id="z4UkGlOtmnH7_BrZowRd-23" value="port : 8080" style="text;html=1;align=center;verticalAlign=middle;whiteSpace=wrap;rounded=0;" vertex="1" parent="1">
          <mxGeometry x="-666" y="695" width="60" height="30" as="geometry" />
        </mxCell>
        <mxCell id="z4UkGlOtmnH7_BrZowRd-24" value="" style="rounded=1;whiteSpace=wrap;html=1;fillColor=none;" vertex="1" parent="1">
          <mxGeometry x="-267" y="391.5" width="154" height="118" as="geometry" />
        </mxCell>
        <mxCell id="z4UkGlOtmnH7_BrZowRd-4" value="" style="shape=image;verticalLabelPosition=bottom;labelBackgroundColor=default;verticalAlign=top;aspect=fixed;imageAspect=0;image=data:image/png,iVBORw0KGgoAAAANSUhEUgAAADoAAAA0CAIAAABU07wPAAAJq0lEQVRoBe2YeVBTSR7HA+q4O/PPlrtVq+5OrQt4IYK4+8fAMuOOuu6MYzBiuOQmgNw3yCF3kCshkXAIggqioBEVRAiCnIIcyo3ccp/hJpBA8l7vQO++xQQ5taamitSvXnX/fr/u/uTb3e/1ezjwq/rhflW0YAv3c87Xlrpb6mIKbC0GAFAAuvv6Wzs6MUMQBFNoM4XPoq5AINB18ZYOT4P2N1OXmZmZzVBibT8Xro5HwL7CcWhybvQtXEzx9RQq6+pLK6v/Z1WwUPKm8ryt21+z+6HJXaGsrO4Uh8MXCNYy7GYXwzlT26+is6DJmDjvf1i1n1m9/2GVjAsV8x80d18Bd5bL1fIIdKXfmJubX5V407hm9rhHddAOWXnuKxhbWK8FY4d9b2J+CTv/FXBzissORecfSnjjHhqBoOjKxL8wLoqioYlMibQeKRZbmpaa/7rsE+PO8/nRiUmeFDq0E5r6u8lx0OT0LKXpKdLXU47QU+QsPTC/jKGdexAVazIxNYUxIQjiHXVbisWWYrElnw94UK6Pjk/UvGvq7R9Al1N63epyeXOavtQvEkqgHbDzl8zogCZn6fFFQvGCP75Y4goV8x91o2H5EvbXBtlsDBcAEJ6UIslsgcRHSY57veO+jC3+PeXxN4Y2boEUwYdbcCO4GmQati6lnEOw++tRW18cs3YhxKzddzUc8x/xisTy/+JMEcKta2qWDmZKsdh70vtxD1sw20V9Gn3/oZDG68BFF39cHm+TuAPDbBRFERRFEGSWy62oqf+XnfefH7WJP2gWS24SS27clli7l3zXMYA6z+cvnQcA1vw2McQeiWSmRjHTIpKfnLZx/2PwfWgylh6HIzOgyZu67l707w6+J23jh/mP2ZGx/MOWnpQ7SdGPnvlG3bJh3JZ1CDkUlvH184HtzNYDjiGKFm4/WLu6B4UWlVUI6Qq5V1EXO5pk5hXgHrbseNQOF9knvO5NH9jGbP0yutAv4iZkgtMopOuacMurau4/TZuZnc0pKhZLbtrGbJVK7z8c++pgUr0o8YFHLfLOoYfiKz4IZQ4dji2U9b974HG7FGv4gxCLve9eze8YWeJJDbJOwT39AwCAyampm/eSG1vb1ofbPzj0/GUeyd6FYGBq6uJh4ea1zzZA0oosZ+R0XMNIXsdCxj5wf0CSBIMlSUs74HtH1tJbXtfquJrBcQ0jWXPPgz63JampB73jZC28jmsYHVczkNezOWrte5CcIElLk2Cw9gcmHbENlLtkKq9meFTXSsPSISYx2fVaiLGTG8HA9LKze05RsdCmXGntzvP5XB4Ps/HJyT/ZBosHpW9nvNxxo2CTtj0yTzz4uXhgunhg+vaA1J+c/EbGxrGxsAJ/w1sNQZBjGia4EBaOlr3tZomofRFbsjN2Gb9ophgjb6GfRRMLyTzgSKl917Ts1Is6V9lqSxskpKTuCHiKC2GJh+eLQtgkpjkzYn4b91o0hHnEIwtx1BcYKy6EtedKhG8IvaS0Yo22DlzOzOw3Vl4Lg1GyxCMKMIidEblf0dJ/fFJBSi/fsazAMcXikQVioR+A4kJYXzuHJTCf9A8MDazZ1oELACirrv27kcOZoNgzQXGnwpJJtFjb6ERG6TvdjEqMfmlBPKpQ7HoujpK1VNGF+QnJOGbsnF9SunT21lJeHy6Korklpdb0aFbT+5zmjrzWzuLOvrLeofyuwT3xr8VvvFqwiHwxRq4YLUeUchE66w9XoszI1OGR0bXwCeWsDxcAgKLo27oGLc/AB1WNea2dmN2ubP6NyHQLibrLNea0mVNpZbXQwUWIaYXqunFhX1wejxYXT3C7llLT/LJlQea81s6Mxve7wrKFEMWCM3YGPJHRt9eyc+no7sEekyswrRDaIC7W46vyt3q2TucsnC5Qb+vHP3N+nKuRwNrrHCbjEHTayOaikUVQRDR8XGFNNlPYLK7Q2AiCNDW3VVbXCvk/VXUduCiKvqmuXfWVVd/EWhSupqFR9DQomraqZx240xzOtxc0yqtqVui0ubVtbHxCKGGWy1UiqL9+WyXk30B1dVy+QMBZ/GQ0OTWtRFAvLCvHhpmf53NmZ5ceTElmtjDKm5vj8niwzJmZUcATC0srAAACBFmajyDI5NT0x/afQOTL2kq47NHRwPAb5w0un9UmqZDMsvILMdz+oSEfahhez/isDunnM1R1QyMk8w+iDbFHfahh53SNlPVNyPTwgeFhDHdiasrc1TM9Jw8mR99NumRh96OWoYaZTXJqOgbNm5t7yso2d/XUtXbkzc3BZHj9KO7I2NgFktlPOiTGrbt3HqToWDsoKqtC3K7ePoKBKcHANPLO3XjmY6KxxSk17ar6BgBAfBJTiaCuQjK/lcx8kPbcm3K9p28A4qaysjXNbU+p67R1dgEALN29/6GsSou5lZVX6BPKUCKoB0VEoyjKFwg8KXQFPNH6qm924aulU7HSAZJMjzitrtvR3QP/FoIg9t7+C7il5T6hYXh9k8Hh/77QcmZmjBxcdawdxicnFfHEU2o6QrsK4ioR1M9o6sF5yC8pVcATc4tfw857BwaV9U1OErUQBCkqq1DAE5+yXgiBrqQuiqI6Vg5eFDpMgtf3Xd1KBPWs/EJtS/vrsXeWhrLyCxXwxPbOLkVl1SesF0tDAACI+29N/aa2dhiydPdWwBPhM7K64d3CYjMyr29uAQCQ6eF4PePxyUmhTmB1+cWAoqih/RVbL7+lf/FdS+s/L15qaX9v5OjqExq29PPQ48wspfNq3b19isqqvjSG0EgQ96SqdunbahhyJgcp4IkoiqZksL5X1bJw82KPjMGQRzBN29JeqAesujwuACAmMemUmk7J20qYOs/na5jbqJDMUBSl3Ig9o6n3prYehobYIxeNza2u+oyMjv6gqf/tBY32xdWJjQFxz2jqn1TVflFQhALQ2tGhqKzqEUxTIqgHR8Zg9xAAwAZxObOzJAeXEyqa1h4+Lv7BeD3j74mX4GxOTXMuO7ufJGpZe/g6+QWe1TZU1jfp7usfH5+oa2hUWFy+dl5kBx//8waX6xqbIW5mbr7rtZDvVDSLyt4AADJz8xXwRCWCuo2nn5GjqxM5CE7XBnEBAFwer6isQtPM5rS6bnp27sTk/79tcXm8nKJiorEFwdA0Pfvl1DQHADA+PtHd08uZmY29/0ABTzyhosm4lTDP5/+8392DqJNT0/N8vh89vKhs4QYMAGjr7KJGx353QSMq4V7/4DB05pWUPsvOhWXR60cXg2jqqh6Iu2raZhK2cDej3mptt9RdTaHNxLfU3Yx6q7X9D8o8fXu0lCpwAAAAAElFTkSuQmCC;" vertex="1" parent="1">
          <mxGeometry x="-280" y="372" width="58" height="52" as="geometry" />
        </mxCell>
        <mxCell id="z4UkGlOtmnH7_BrZowRd-5" value="" style="shape=image;verticalLabelPosition=bottom;labelBackgroundColor=default;verticalAlign=top;aspect=fixed;imageAspect=0;image=data:image/png,iVBORw0KGgoAAAANSUhEUgAAAEIAAAAfCAIAAADcJoyWAAAJj0lEQVRYCd2YiVMTaRbA+cvSCQ6uODruOOho1axa6zizVdOdEFBQQB0ZlRHFi7FUZjxREcaD/b5OQg5CEhLCFQhIuA0iwYTcdx/pY7fT2CCu507VuNvVlXr98vX33u97733fSwr4/4ur4M+liCWiiWT8v/fhz8Sgc/Rx054T+r3/2xg8z/eOdw1Mdv/xGBzHJclYJON/wx3IUpnXrXI8l8hE40SYoDIczwmTEFGWZXNMLk6E40Q4x9DiW2kiSVBZhskliEiOyWXJTJbK5MfHGJahaDJBhFNEnOM4cTzHc2kyESOWMmSK5/k0mSRp4nUHXkkqlmNbe3/BIIIC2ZtuFV44OGNZPVGOydUZ/44BuRIUKqG82VHvDY1jUN7mvFKNb8eAHAVIjWa7L+zleb4MX1+j/6oG7kCB7FH/b7Wmv9Xq94zM9aJAdrOnrkKzGQWC9WuWkxzH0Qx9x3kGBTIMyFVQ0d5/XY0X/WKuXG1dlF/BeBr0lMJ1IgAGkdW3RIVBpFKzOZGJSXOZxh5iELFPaz3eobahi7/aj3l8gyiQKaHimrO2Z1p/b6BBDYuOaHcSVFYNi1AgK9dsuNFzYj40c0S/47B258CMRVDiG9rcF9qfNOVhZJFkUDd6DwPIScNe+7TWONFa07ENBbKzxlLJtCSsYAiLavo2jy6sh8SwHxaL8cHy6yToAfJ4uEmKu87TjEEEjFwPp/25nJA8UwE3CmQXbWWSmRvOkxhEnkdm1LAIA0jfdBfP8xRNrsa423tWHA/dt1Agc7g79+MbyzUboqmQqJ/1e/IYamlaSVjBsM9oV6cTBoRoXDQd9IXm1JrPVkcDBbIDmo2LkXlxliyRqTN8h0GkDN/Q0IXOvvCIGPrR+5IZ57xWCeQzYbcaFlVqvhD1azB0wy2i3jaiRwFi6oMYkNfqd0uTMAyDQeSs8c0YqWyyUrdZisBNR53rqa0UX4fb2liOrdJvqTXsejLff1j/tRgNDCK/9hxlWUZyyBf2/u66VAY31OhKXN5uFMja3BclDzRjtzCIzEU8alhUrSuR3pKigQFE536J4RYwuga0Sqio0n3JvLQSjgUxiJx7CwZwX5fS6bK1is5R0y9GVS8xDum31Op3pYlkILZQhv9FjEwp+GzW7+F5Hg7d7pnS87ywQz1wXSqHxfaJDhTIyuD6ycVhnuefh55Wd2zDoDyWCr8JAwWyNRi2IUNj1yEMyB+6rjAskyFSl7ur3pZUoYR/P75RdK4cL16K+7yBif2aYhTIxGgc0m9Bgey8RU3RpMHTJiVYgxWjaPKSVTBWpfnqhG6fEhSe6yodXxRK/JhmlwqsOwj/qoKFSqAwPGnlOE4Ni2o6tonRoGnyqGHHUe3OwVkrCmQd7uUk7HYbUIDYh02xdKhKV4IC2X74eRledFi3HQWyRnOFFGRJKGBZ5mbvScmzS90HGJY5Z1GKmtUYSiAf8FqyZEYNV0qld9bIcez0krvF3njDXm8cfZAl02JtgMFbnoWBW92nmx1nx30ujmOF0LmaHZMdonmO47o8wOrRJLPxFmdjILYg6pOpeLO9IZlJLMUWh712ONh8w17f4b6vGW5GgazddU3yXhIKFqNzZfh6MaMwiOjc9yLxUIVmk1gnUm2IVE19NTzPH9PsFh8xiNTotxFUJhgMMwwTDIaSqXQymeqbFFa3xXqZYdlgMERRdCQSzWaJaCweDIUpig6GlsfncrlQKJJKpRPJVDQWJwgiEo1RNB0MhlmWPQ+rVbDweOfupr6qU5ZvlVBRrdk25Z2kaTocjpIkmZ82m0gkCzqH2pd30vzWZJuA/vDCflzYZDGIXDfXUzRZrhXqAYPIBbuK47gT8DsJGwXIc/+c2WonCMJssU9Nz05MThtsxrqO79tNDwiCNFvskUjU2Tew4Ft0DY902RyRaMxic4jjk8mU1e6ceer1jE8NutwvXgT6BlzRWNxstdM0bTCb9a6HTd1Hfzb845yx9OHQ1ef+Zza7MxqLO5z9S8FQT9/Ac9/imGeiYMI3hEG5dCa0OBsJMlut3ypiKKHisFbYncTlv99/MRgKqx9sFM9aDCIqqEiko1JwJUHqPiTNRwtiU8OwubfMUEDn6HqLsOuLB8Ux4zckRcCxayKG9Cmest7F6U6nSRiZD52QhOO3aZqq69rL5lP/LZbe9FUguugYM77p2/fUC8efNzSuBIrldAfI8JyD47g6/T5R81Iv/6b8a+/cfEOnStIfgJtSRNw+1IkCZHxm7D1Nrhl2+p9lKlgYDAXW6D/oUcDgOO6CtUxa4Ep8y4uocEKbRh78ZNx1pGPnGcsPv929lmNy5vFHGJS/LAy5dRrwPN891IlBpO9Jd8dAm6b/XjQVFD2IpSOWJ3ir7eqM/4mUY4HYAnDeedxz0x+b5zg2TaaOt3+vhIoRby+db2Q+yHtp8HIzshh5VoqvE1NLyB9Y7JjRpslkjsmxLDPr9Rrthtu99UIVvayTOtO+LCk07SIGBuW12j3l+IYDmk3hxFIgtlAKiirwTce0u1R44Z3eMwzLDM5aMYBUaUqOaHdiUG4Ya+saxkvz2/fhju2+6FPJrQ8VVnqq+64La1rACt3G86ayJvuRg207VLhipSQAUgrXjS30i8byGPLTeoznefukDoOIceThTYvQYHueuViWvWQ5pITyQNQneA8QiiIJKnsQflnTUUKQRP1jtQoWBoL+D3V99fgVjGQ6XqHdLOX96uKWIiBuuxhAGm0Hcszy1iFGQ2d/JJTZ4hQKZHetFxv06n/3I8lUguf53x1NKJBNzI9U4l8ooYLjOJZlTuFoOSyOJkOn/lgMnufN049WeywhrRFUsNC7NCUthoABkDMGJcMw+tFWDCDWMfyWVYjG2Nwgw+QuCa2Rwh9ZyEdDns6ksmTqINharSshyGx9u1oJCxcDCywrHPMfd61Eg+d5OkedNv+wxunXH1v7G1cb63FbMICoNesP6jYrgaJKuzWWiizFfeVgY7mmWHT9jrOBYZmBWQsG5JXaLdWaEqHLGm3jef5G12kUyCp0n9/pWf69sXry95RfweB5PktloPvmFdOP4v314SJRuJzXXDXXOma10g8m0QZBEje6f46nYq39jS29FwIxn6gPRv0Ph65ct9X1zOikDJyaH7vjaLjtOONZGBCHJTLRlt4Lt+ynnwaEfvnjrrUYa2ap/vHkGs2n+fgOjGAo/Gn6vcard2BMTE2veeHTfHwHBkUt/7/0aXovefUODH9gSRr6KQvvwEin/8N/hJ8gz78AR4cxRs7jJwEAAAAASUVORK5CYII=;" vertex="1" parent="1">
          <mxGeometry x="-219" y="432" width="66" height="31" as="geometry" />
        </mxCell>
        <mxCell id="z4UkGlOtmnH7_BrZowRd-25" value="port : 8081" style="text;html=1;align=center;verticalAlign=middle;whiteSpace=wrap;rounded=0;" vertex="1" parent="1">
          <mxGeometry x="-220" y="364" width="60" height="30" as="geometry" />
        </mxCell>
        <mxCell id="z4UkGlOtmnH7_BrZowRd-26" value="port : 80" style="text;html=1;align=center;verticalAlign=middle;whiteSpace=wrap;rounded=0;" vertex="1" parent="1">
          <mxGeometry x="-222" y="461" width="60" height="30" as="geometry" />
        </mxCell>
        <mxCell id="z4UkGlOtmnH7_BrZowRd-32" value="" style="rounded=1;whiteSpace=wrap;html=1;fillColor=none;" vertex="1" parent="1">
          <mxGeometry x="-262.5" y="539.5" width="154" height="118" as="geometry" />
        </mxCell>
        <mxCell id="z4UkGlOtmnH7_BrZowRd-33" value="" style="shape=image;verticalLabelPosition=bottom;labelBackgroundColor=default;verticalAlign=top;aspect=fixed;imageAspect=0;image=data:image/png,iVBORw0KGgoAAAANSUhEUgAAADoAAAA0CAIAAABU07wPAAAJq0lEQVRoBe2YeVBTSR7HA+q4O/PPlrtVq+5OrQt4IYK4+8fAMuOOuu6MYzBiuOQmgNw3yCF3kCshkXAIggqioBEVRAiCnIIcyo3ccp/hJpBA8l7vQO++xQQ5taamitSvXnX/fr/u/uTb3e/1ezjwq/rhflW0YAv3c87Xlrpb6mIKbC0GAFAAuvv6Wzs6MUMQBFNoM4XPoq5AINB18ZYOT4P2N1OXmZmZzVBibT8Xro5HwL7CcWhybvQtXEzx9RQq6+pLK6v/Z1WwUPKm8ryt21+z+6HJXaGsrO4Uh8MXCNYy7GYXwzlT26+is6DJmDjvf1i1n1m9/2GVjAsV8x80d18Bd5bL1fIIdKXfmJubX5V407hm9rhHddAOWXnuKxhbWK8FY4d9b2J+CTv/FXBzissORecfSnjjHhqBoOjKxL8wLoqioYlMibQeKRZbmpaa/7rsE+PO8/nRiUmeFDq0E5r6u8lx0OT0LKXpKdLXU47QU+QsPTC/jKGdexAVazIxNYUxIQjiHXVbisWWYrElnw94UK6Pjk/UvGvq7R9Al1N63epyeXOavtQvEkqgHbDzl8zogCZn6fFFQvGCP75Y4goV8x91o2H5EvbXBtlsDBcAEJ6UIslsgcRHSY57veO+jC3+PeXxN4Y2boEUwYdbcCO4GmQati6lnEOw++tRW18cs3YhxKzddzUc8x/xisTy/+JMEcKta2qWDmZKsdh70vtxD1sw20V9Gn3/oZDG68BFF39cHm+TuAPDbBRFERRFEGSWy62oqf+XnfefH7WJP2gWS24SS27clli7l3zXMYA6z+cvnQcA1vw2McQeiWSmRjHTIpKfnLZx/2PwfWgylh6HIzOgyZu67l707w6+J23jh/mP2ZGx/MOWnpQ7SdGPnvlG3bJh3JZ1CDkUlvH184HtzNYDjiGKFm4/WLu6B4UWlVUI6Qq5V1EXO5pk5hXgHrbseNQOF9knvO5NH9jGbP0yutAv4iZkgtMopOuacMurau4/TZuZnc0pKhZLbtrGbJVK7z8c++pgUr0o8YFHLfLOoYfiKz4IZQ4dji2U9b974HG7FGv4gxCLve9eze8YWeJJDbJOwT39AwCAyampm/eSG1vb1ofbPzj0/GUeyd6FYGBq6uJh4ea1zzZA0oosZ+R0XMNIXsdCxj5wf0CSBIMlSUs74HtH1tJbXtfquJrBcQ0jWXPPgz63JampB73jZC28jmsYHVczkNezOWrte5CcIElLk2Cw9gcmHbENlLtkKq9meFTXSsPSISYx2fVaiLGTG8HA9LKze05RsdCmXGntzvP5XB4Ps/HJyT/ZBosHpW9nvNxxo2CTtj0yTzz4uXhgunhg+vaA1J+c/EbGxrGxsAJ/w1sNQZBjGia4EBaOlr3tZomofRFbsjN2Gb9ophgjb6GfRRMLyTzgSKl917Ts1Is6V9lqSxskpKTuCHiKC2GJh+eLQtgkpjkzYn4b91o0hHnEIwtx1BcYKy6EtedKhG8IvaS0Yo22DlzOzOw3Vl4Lg1GyxCMKMIidEblf0dJ/fFJBSi/fsazAMcXikQVioR+A4kJYXzuHJTCf9A8MDazZ1oELACirrv27kcOZoNgzQXGnwpJJtFjb6ERG6TvdjEqMfmlBPKpQ7HoujpK1VNGF+QnJOGbsnF9SunT21lJeHy6Korklpdb0aFbT+5zmjrzWzuLOvrLeofyuwT3xr8VvvFqwiHwxRq4YLUeUchE66w9XoszI1OGR0bXwCeWsDxcAgKLo27oGLc/AB1WNea2dmN2ubP6NyHQLibrLNea0mVNpZbXQwUWIaYXqunFhX1wejxYXT3C7llLT/LJlQea81s6Mxve7wrKFEMWCM3YGPJHRt9eyc+no7sEekyswrRDaIC7W46vyt3q2TucsnC5Qb+vHP3N+nKuRwNrrHCbjEHTayOaikUVQRDR8XGFNNlPYLK7Q2AiCNDW3VVbXCvk/VXUduCiKvqmuXfWVVd/EWhSupqFR9DQomraqZx240xzOtxc0yqtqVui0ubVtbHxCKGGWy1UiqL9+WyXk30B1dVy+QMBZ/GQ0OTWtRFAvLCvHhpmf53NmZ5ceTElmtjDKm5vj8niwzJmZUcATC0srAAACBFmajyDI5NT0x/afQOTL2kq47NHRwPAb5w0un9UmqZDMsvILMdz+oSEfahhez/isDunnM1R1QyMk8w+iDbFHfahh53SNlPVNyPTwgeFhDHdiasrc1TM9Jw8mR99NumRh96OWoYaZTXJqOgbNm5t7yso2d/XUtXbkzc3BZHj9KO7I2NgFktlPOiTGrbt3HqToWDsoKqtC3K7ePoKBKcHANPLO3XjmY6KxxSk17ar6BgBAfBJTiaCuQjK/lcx8kPbcm3K9p28A4qaysjXNbU+p67R1dgEALN29/6GsSou5lZVX6BPKUCKoB0VEoyjKFwg8KXQFPNH6qm924aulU7HSAZJMjzitrtvR3QP/FoIg9t7+C7il5T6hYXh9k8Hh/77QcmZmjBxcdawdxicnFfHEU2o6QrsK4ioR1M9o6sF5yC8pVcATc4tfw857BwaV9U1OErUQBCkqq1DAE5+yXgiBrqQuiqI6Vg5eFDpMgtf3Xd1KBPWs/EJtS/vrsXeWhrLyCxXwxPbOLkVl1SesF0tDAACI+29N/aa2dhiydPdWwBPhM7K64d3CYjMyr29uAQCQ6eF4PePxyUmhTmB1+cWAoqih/RVbL7+lf/FdS+s/L15qaX9v5OjqExq29PPQ48wspfNq3b19isqqvjSG0EgQ96SqdunbahhyJgcp4IkoiqZksL5X1bJw82KPjMGQRzBN29JeqAesujwuACAmMemUmk7J20qYOs/na5jbqJDMUBSl3Ig9o6n3prYehobYIxeNza2u+oyMjv6gqf/tBY32xdWJjQFxz2jqn1TVflFQhALQ2tGhqKzqEUxTIqgHR8Zg9xAAwAZxObOzJAeXEyqa1h4+Lv7BeD3j74mX4GxOTXMuO7ufJGpZe/g6+QWe1TZU1jfp7usfH5+oa2hUWFy+dl5kBx//8waX6xqbIW5mbr7rtZDvVDSLyt4AADJz8xXwRCWCuo2nn5GjqxM5CE7XBnEBAFwer6isQtPM5rS6bnp27sTk/79tcXm8nKJiorEFwdA0Pfvl1DQHADA+PtHd08uZmY29/0ABTzyhosm4lTDP5/+8392DqJNT0/N8vh89vKhs4QYMAGjr7KJGx353QSMq4V7/4DB05pWUPsvOhWXR60cXg2jqqh6Iu2raZhK2cDej3mptt9RdTaHNxLfU3Yx6q7X9D8o8fXu0lCpwAAAAAElFTkSuQmCC;" vertex="1" parent="1">
          <mxGeometry x="-275.5" y="520" width="58" height="52" as="geometry" />
        </mxCell>
        <mxCell id="z4UkGlOtmnH7_BrZowRd-34" value="" style="shape=image;verticalLabelPosition=bottom;labelBackgroundColor=default;verticalAlign=top;aspect=fixed;imageAspect=0;image=data:image/png,iVBORw0KGgoAAAANSUhEUgAAAEIAAAAfCAIAAADcJoyWAAAJj0lEQVRYCd2YiVMTaRbA+cvSCQ6uODruOOho1axa6zizVdOdEFBQQB0ZlRHFi7FUZjxREcaD/b5OQg5CEhLCFQhIuA0iwYTcdx/pY7fT2CCu507VuNvVlXr98vX33u97733fSwr4/4ur4M+liCWiiWT8v/fhz8Sgc/Rx054T+r3/2xg8z/eOdw1Mdv/xGBzHJclYJON/wx3IUpnXrXI8l8hE40SYoDIczwmTEFGWZXNMLk6E40Q4x9DiW2kiSVBZhskliEiOyWXJTJbK5MfHGJahaDJBhFNEnOM4cTzHc2kyESOWMmSK5/k0mSRp4nUHXkkqlmNbe3/BIIIC2ZtuFV44OGNZPVGOydUZ/44BuRIUKqG82VHvDY1jUN7mvFKNb8eAHAVIjWa7L+zleb4MX1+j/6oG7kCB7FH/b7Wmv9Xq94zM9aJAdrOnrkKzGQWC9WuWkxzH0Qx9x3kGBTIMyFVQ0d5/XY0X/WKuXG1dlF/BeBr0lMJ1IgAGkdW3RIVBpFKzOZGJSXOZxh5iELFPaz3eobahi7/aj3l8gyiQKaHimrO2Z1p/b6BBDYuOaHcSVFYNi1AgK9dsuNFzYj40c0S/47B258CMRVDiG9rcF9qfNOVhZJFkUDd6DwPIScNe+7TWONFa07ENBbKzxlLJtCSsYAiLavo2jy6sh8SwHxaL8cHy6yToAfJ4uEmKu87TjEEEjFwPp/25nJA8UwE3CmQXbWWSmRvOkxhEnkdm1LAIA0jfdBfP8xRNrsa423tWHA/dt1Agc7g79+MbyzUboqmQqJ/1e/IYamlaSVjBsM9oV6cTBoRoXDQd9IXm1JrPVkcDBbIDmo2LkXlxliyRqTN8h0GkDN/Q0IXOvvCIGPrR+5IZ57xWCeQzYbcaFlVqvhD1azB0wy2i3jaiRwFi6oMYkNfqd0uTMAyDQeSs8c0YqWyyUrdZisBNR53rqa0UX4fb2liOrdJvqTXsejLff1j/tRgNDCK/9hxlWUZyyBf2/u66VAY31OhKXN5uFMja3BclDzRjtzCIzEU8alhUrSuR3pKigQFE536J4RYwuga0Sqio0n3JvLQSjgUxiJx7CwZwX5fS6bK1is5R0y9GVS8xDum31Op3pYlkILZQhv9FjEwp+GzW7+F5Hg7d7pnS87ywQz1wXSqHxfaJDhTIyuD6ycVhnuefh55Wd2zDoDyWCr8JAwWyNRi2IUNj1yEMyB+6rjAskyFSl7ur3pZUoYR/P75RdK4cL16K+7yBif2aYhTIxGgc0m9Bgey8RU3RpMHTJiVYgxWjaPKSVTBWpfnqhG6fEhSe6yodXxRK/JhmlwqsOwj/qoKFSqAwPGnlOE4Ni2o6tonRoGnyqGHHUe3OwVkrCmQd7uUk7HYbUIDYh02xdKhKV4IC2X74eRledFi3HQWyRnOFFGRJKGBZ5mbvScmzS90HGJY5Z1GKmtUYSiAf8FqyZEYNV0qld9bIcez0krvF3njDXm8cfZAl02JtgMFbnoWBW92nmx1nx30ujmOF0LmaHZMdonmO47o8wOrRJLPxFmdjILYg6pOpeLO9IZlJLMUWh712ONh8w17f4b6vGW5GgazddU3yXhIKFqNzZfh6MaMwiOjc9yLxUIVmk1gnUm2IVE19NTzPH9PsFh8xiNTotxFUJhgMMwwTDIaSqXQymeqbFFa3xXqZYdlgMERRdCQSzWaJaCweDIUpig6GlsfncrlQKJJKpRPJVDQWJwgiEo1RNB0MhlmWPQ+rVbDweOfupr6qU5ZvlVBRrdk25Z2kaTocjpIkmZ82m0gkCzqH2pd30vzWZJuA/vDCflzYZDGIXDfXUzRZrhXqAYPIBbuK47gT8DsJGwXIc/+c2WonCMJssU9Nz05MThtsxrqO79tNDwiCNFvskUjU2Tew4Ft0DY902RyRaMxic4jjk8mU1e6ceer1jE8NutwvXgT6BlzRWNxstdM0bTCb9a6HTd1Hfzb845yx9OHQ1ef+Zza7MxqLO5z9S8FQT9/Ac9/imGeiYMI3hEG5dCa0OBsJMlut3ypiKKHisFbYncTlv99/MRgKqx9sFM9aDCIqqEiko1JwJUHqPiTNRwtiU8OwubfMUEDn6HqLsOuLB8Ux4zckRcCxayKG9Cmest7F6U6nSRiZD52QhOO3aZqq69rL5lP/LZbe9FUguugYM77p2/fUC8efNzSuBIrldAfI8JyD47g6/T5R81Iv/6b8a+/cfEOnStIfgJtSRNw+1IkCZHxm7D1Nrhl2+p9lKlgYDAXW6D/oUcDgOO6CtUxa4Ep8y4uocEKbRh78ZNx1pGPnGcsPv929lmNy5vFHGJS/LAy5dRrwPN891IlBpO9Jd8dAm6b/XjQVFD2IpSOWJ3ir7eqM/4mUY4HYAnDeedxz0x+b5zg2TaaOt3+vhIoRby+db2Q+yHtp8HIzshh5VoqvE1NLyB9Y7JjRpslkjsmxLDPr9Rrthtu99UIVvayTOtO+LCk07SIGBuW12j3l+IYDmk3hxFIgtlAKiirwTce0u1R44Z3eMwzLDM5aMYBUaUqOaHdiUG4Ya+saxkvz2/fhju2+6FPJrQ8VVnqq+64La1rACt3G86ayJvuRg207VLhipSQAUgrXjS30i8byGPLTeoznefukDoOIceThTYvQYHueuViWvWQ5pITyQNQneA8QiiIJKnsQflnTUUKQRP1jtQoWBoL+D3V99fgVjGQ6XqHdLOX96uKWIiBuuxhAGm0Hcszy1iFGQ2d/JJTZ4hQKZHetFxv06n/3I8lUguf53x1NKJBNzI9U4l8ooYLjOJZlTuFoOSyOJkOn/lgMnufN049WeywhrRFUsNC7NCUthoABkDMGJcMw+tFWDCDWMfyWVYjG2Nwgw+QuCa2Rwh9ZyEdDns6ksmTqINharSshyGx9u1oJCxcDCywrHPMfd61Eg+d5OkedNv+wxunXH1v7G1cb63FbMICoNesP6jYrgaJKuzWWiizFfeVgY7mmWHT9jrOBYZmBWQsG5JXaLdWaEqHLGm3jef5G12kUyCp0n9/pWf69sXry95RfweB5PktloPvmFdOP4v314SJRuJzXXDXXOma10g8m0QZBEje6f46nYq39jS29FwIxn6gPRv0Ph65ct9X1zOikDJyaH7vjaLjtOONZGBCHJTLRlt4Lt+ynnwaEfvnjrrUYa2ap/vHkGs2n+fgOjGAo/Gn6vcard2BMTE2veeHTfHwHBkUt/7/0aXovefUODH9gSRr6KQvvwEin/8N/hJ8gz78AR4cxRs7jJwEAAAAASUVORK5CYII=;" vertex="1" parent="1">
          <mxGeometry x="-214.5" y="580" width="66" height="31" as="geometry" />
        </mxCell>
        <mxCell id="z4UkGlOtmnH7_BrZowRd-35" value="port : 8082" style="text;html=1;align=center;verticalAlign=middle;whiteSpace=wrap;rounded=0;" vertex="1" parent="1">
          <mxGeometry x="-215.5" y="512" width="60" height="30" as="geometry" />
        </mxCell>
        <mxCell id="z4UkGlOtmnH7_BrZowRd-36" value="port : 80" style="text;html=1;align=center;verticalAlign=middle;whiteSpace=wrap;rounded=0;" vertex="1" parent="1">
          <mxGeometry x="-217.5" y="609" width="60" height="30" as="geometry" />
        </mxCell>
        <mxCell id="z4UkGlOtmnH7_BrZowRd-43" value="" style="edgeStyle=orthogonalEdgeStyle;rounded=0;orthogonalLoop=1;jettySize=auto;html=1;" edge="1" parent="1" source="z4UkGlOtmnH7_BrZowRd-38" target="z4UkGlOtmnH7_BrZowRd-21">
          <mxGeometry relative="1" as="geometry" />
        </mxCell>
        <mxCell id="z4UkGlOtmnH7_BrZowRd-38" value="" style="shape=partialRectangle;whiteSpace=wrap;html=1;bottom=1;right=1;left=1;top=0;fillColor=none;routingCenterX=-0.5;rotation=90;" vertex="1" parent="1">
          <mxGeometry x="-356" y="491" width="120" height="60" as="geometry" />
        </mxCell>
        <mxCell id="z4UkGlOtmnH7_BrZowRd-41" value="deploy-shell&lt;div&gt;&lt;br/&gt;&lt;/div&gt;" style="shape=tapeData;whiteSpace=wrap;html=1;perimeter=ellipsePerimeter;" vertex="1" parent="1">
          <mxGeometry x="-509.5" y="620" width="80" height="80" as="geometry" />
        </mxCell>
        <mxCell id="z4UkGlOtmnH7_BrZowRd-44" value="port : 80" style="text;html=1;align=center;verticalAlign=middle;whiteSpace=wrap;rounded=0;" vertex="1" parent="1">
          <mxGeometry x="-509.5" y="377" width="60" height="30" as="geometry" />
        </mxCell>
        <mxCell id="z4UkGlOtmnH7_BrZowRd-45" value="" style="shape=image;html=1;verticalLabelPosition=bottom;verticalAlign=top;imageAspect=1;aspect=fixed;image=img/clipart/Gear_128x128.png" vertex="1" parent="1">
          <mxGeometry x="-495.5" y="586" width="52" height="61" as="geometry" />
        </mxCell>
        <mxCell id="z4UkGlOtmnH7_BrZowRd-49" value="" style="html=1;shadow=0;dashed=0;align=center;verticalAlign=middle;shape=mxgraph.arrows2.jumpInArrow;dy=15;dx=38;arrowHead=55;" vertex="1" parent="1">
          <mxGeometry x="-426" y="504" width="165" height="141.5" as="geometry" />
        </mxCell>
      </root>
    </mxGraphModel>
  </diagram>
</mxfile>
